<svg xmlns="http://www.w3.org/2000/svg" xmlns:xlink="http://www.w3.org/1999/xlink" viewBox="0 0 1014.23 412.65"><defs><style>.cls-1{fill:none;}.cls-2{isolation:isolate;}.cls-3{clip-path:url(#clip-path);}.cls-4,.cls-5{mix-blend-mode:screen;}.cls-4{fill:url(#Áåçûìÿííûé_ãðàäèåíò_550);}.cls-5{fill:url(#Áåçûìÿííûé_ãðàäèåíò_558);}.cls-6{fill:#fff;}.cls-6,.cls-8{fill-rule:evenodd;}.cls-7{opacity:0.2;}.cls-8{fill:#635eb0;}</style><clipPath id="clip-path"><rect class="cls-1" x="8.71" y="9.22" width="1000" height="400"/></clipPath><radialGradient id="Áåçûìÿííûé_ãðàäèåíò_550" cx="-1120.09" cy="235.27" r="27.39" gradientTransform="translate(3096.81 -444.96) scale(2.39 2.37)" gradientUnits="userSpaceOnUse"><stop offset="0" stop-color="#6a229d"/><stop offset="0.16" stop-color="#672199"/><stop offset="0.32" stop-color="#5f1e8c"/><stop offset="0.48" stop-color="#511a78"/><stop offset="0.64" stop-color="#3d145b"/><stop offset="0.81" stop-color="#240c36"/><stop offset="0.97" stop-color="#060209"/><stop offset="1"/></radialGradient><radialGradient id="Áåçûìÿííûé_ãðàäèåíò_558" cx="-1119.5" cy="234.22" r="23.37" gradientTransform="matrix(2.39, 0, 0, 2.37, 3094.7, -444.96)" gradientUnits="userSpaceOnUse"><stop offset="0" stop-color="#0037a4"/><stop offset="0.15" stop-color="#0036a0"/><stop offset="0.31" stop-color="#003294"/><stop offset="0.47" stop-color="#002b7f"/><stop offset="0.63" stop-color="#002163"/><stop offset="0.79" stop-color="#00153e"/><stop offset="0.95" stop-color="#000611"/><stop offset="1"/></radialGradient></defs><g class="cls-2"><g id="Medieval_Town" data-name="Medieval Town"><g class="cls-3"><ellipse class="cls-4" cx="415.19" cy="113.5" rx="65.57" ry="65.01" transform="translate(41.35 326.83) rotate(-45)"/><ellipse class="cls-5" cx="414.42" cy="110.75" rx="55.94" ry="55.46" transform="translate(43.09 325.51) rotate(-45.01)"/><path class="cls-6" d="M456.92,111.28a42.11,42.11,0,1,1-84.21,0,43.15,43.15,0,0,1,.24-4.57,42.11,42.11,0,0,1,84,4.57Z"/><g class="cls-7"><path class="cls-8" d="M404.18,139.75a9.93,9.93,0,0,0,1.78,3.06,5.69,5.69,0,0,0,3,1.58,4.61,4.61,0,0,0,1.84.46,10.25,10.25,0,0,1,2.07,0c1.33.3,2,1.49,3.54,1.57a9.17,9.17,0,0,0,3.57-.77c1.16-.36,2.51-.86,3.58-1.27s2.23-.76,3.45-1.15,2-1.29,3.61-.83c.1.61-.05,1.57.7,1.88.51.2,1.36-.34,1.91-.55,1.43-.55,2.72-.85,4.08-1.42a6.22,6.22,0,0,0,1.8-.75c.64-.47,1.32-.83,2-1.27,1.23-.83,2.44-1.72,3.67-2.55a19,19,0,0,0,5.3-6.13,18.51,18.51,0,0,0,1.66-4c.58-1.72.39-2.21-.76-3.61-2.07.86-2.89-.42-2.31-2.63a15.35,15.35,0,0,0,.28-6.51c-.08-.36-.35-.62-.41-1.13a10,10,0,0,0-.1-1.54,9,9,0,0,1-.4-2.55,12,12,0,0,0-.11-3.06,6.06,6.06,0,0,1-.41-1.53,7.67,7.67,0,0,0-.1-1.92c-.49-1.71-2.05-2.18-3.46-2.67-1-.33-1.44-.66-2,0s-.49,1.65-.5,2.56c0,1.7,1.09,3.21,2,4.59.43.62,1.17,1.21,1.06,2.06-.06.46-.63.53-.6,1s.66.74,1,1.14c2.43,3.17-2.15,6-4.34,7.66-1.24,1-3.12,1.45-3.59,3s.66,3.13,1.29,4.59,1.21,4.2.26,5.63A4.33,4.33,0,0,1,436.7,134a12.19,12.19,0,0,0-2,1.54,6.78,6.78,0,0,1-4.48,1.15,4.91,4.91,0,0,1-2.55-1,9.11,9.11,0,0,0-2.15-1.42,7.65,7.65,0,0,0-1.43-.1c-.72-.09-.86-.39-1.49-.55-1.09-.28-1.86.49-2.71.92a3.57,3.57,0,0,1-2.45.66c-.84-.22-1.82-.76-2.63-.93-1.95-.4-5.1-.54-6.66.78-.79.67-1.06,1.6-1.76,2.3S404.39,138.18,404.18,139.75Z"/><path class="cls-8" d="M442.94,95.37c-1.87,0-3.58-1.37-5.11-2.42a7.68,7.68,0,0,1-3.56-4.72c0-.09-.48-1.3-.48-1.34a3.6,3.6,0,0,1,1.12-2.1c1.52-1.57,3.85-.44,5.37.5a24.94,24.94,0,0,1,4.05,3.07,9.21,9.21,0,0,1,1.81,1.77,6.07,6.07,0,0,1,.38,3.2c0,1.72,2.23,3.71-.5,4.09-1.08.15-4.36-.76-4.61-2Z"/><path class="cls-8" d="M409.28,150c-.47.51-1,.16-1.54,0a4.7,4.7,0,0,0-1.52-.25,12.51,12.51,0,0,1-3.19-.25c-1-.25-2-.4-2.93-.64-.39-.1-.75-.31-1.14-.39-.24,0-.51,0-.75,0s-.13-.16-.21-.18-.38,0-.58-.05a23.63,23.63,0,0,1-2.73-.72,4.34,4.34,0,0,1-1.16-.36c-.39-.24-.93-.51-1.28-.77a33.32,33.32,0,0,1-4.14-3.13c-1.18-1.19-2.4-2.27-3.64-3.38-.29-.26-.52-.59-.82-.83a7.82,7.82,0,0,1-1-.7,16.74,16.74,0,0,1-1.66-2.11c-1-1.45-2.3-2.64-3.09-4.23-.38-.77-.73-1.52-1.18-2.26a9.63,9.63,0,0,1-.77-1.54,12.9,12.9,0,0,1-.57-1.2c-.16-.55-.16-1.08-.31-1.61-.07-.23-.22-.39-.27-.62s.08-.62,0-.91-.22-.37-.28-.62.08-.62,0-.91-.22-.37-.27-.62.1-.72,0-1-.22-.36-.28-.62a5.42,5.42,0,0,1,0-.9c0-.66-.22-1.16-.26-1.79a8.22,8.22,0,0,1,0-1.92c.05-.26.22-.37.28-.61s-.08-.68,0-1c.68-.18.47,1.28.46,1.64,0,.66.27,1,.26,1.66,0,.79.31.9.78,1.47a4.51,4.51,0,0,1,.76,1.07c.07.21.06.56.12.77a2.64,2.64,0,0,1,.12.77c0,.62,0,.94.44,1.34a3.89,3.89,0,0,0,1.33.71c.59.13,1.09.12,1.69.23.26,0,.36.22.61.28s.67-.12,1,0a2.2,2.2,0,0,1,.76,1,1.84,1.84,0,0,1-.2,1.47,4.81,4.81,0,0,1-.25.51c-.12.19-.36.37-.46.56-.48.88.21,2.32.4,3.07.08.29.52,1.17.27,1.43s-1.68,0-2-.12c-.15.32.15.94.24,1.28a5.86,5.86,0,0,0,.55,1.37,5.62,5.62,0,0,0,2.08,1.88c.51.27.83.41.93-.28,0-.32-.05-.49.11-.78s.32-.24.4-.49-.09-.63,0-.92.2-.34.24-.52c.14-.6-.09-1.28,0-1.89a2.55,2.55,0,0,1,2.18-2,19.63,19.63,0,0,0,3.18-1,5.06,5.06,0,0,1,3.58-.32,16.62,16.62,0,0,1,2.65,1.37,8.78,8.78,0,0,0,1.18.47c.47.18,1,.36,1.42.5a10.75,10.75,0,0,1,2.59.84,8,8,0,0,1,2.24,1.72,3.55,3.55,0,0,1,.61,2.92c-.27.65-1.24,1.21-1.7,1.74-.78.92-.57,1.54,0,2.48a5.89,5.89,0,0,1,.68,1.18,6.55,6.55,0,0,1,0,1.77,2.13,2.13,0,0,1-.44,1.21c-.25.38-.83.62-1,1s0,.52.14.79c0,.07.16.1.2.17s0,.35.12.53c.25.58.75.49,1.28.63a2.37,2.37,0,0,0,1.53-.12,3,3,0,0,1,.76-.27c.37,0,.55.15.82.2.63.13,1-.3,1.62-.33a1.48,1.48,0,0,1,1.2.58c.32.33.77.87.72,1.35S409.63,149.49,409.28,150Z"/><path class="cls-8" d="M404.43,130.82a3.71,3.71,0,0,1,.45-.22,6.27,6.27,0,0,0,1.34,1.24c.74.47,1.11.17,1.28-.63.09-.41-.13-.66-.21-1s0-.7-.36-.91-1.95-.14-1.73.71Z"/><path class="cls-8" d="M380,97.92a.44.44,0,0,1-.47.24,4.64,4.64,0,0,1,0-1.62c.05-.24.2-.36.24-.65s0-.47.05-.72.33-.81.4-1.13a4.79,4.79,0,0,1,.32-1.21c.18-.42.28-1,.47-1.42a7.62,7.62,0,0,1,.6-1.13c.47-.78.86-1.53,1.34-2.31A15.63,15.63,0,0,1,386,84.15c.44-.36.93-.64,1.39-1,.16-.11.28-.29.43-.39s.39-.14.53-.24c.4-.29,1.54-1.45,2.06-1.17-.36,1-1,1.89-1.43,2.82s-1.51,1-2.3,1.79c-1.22,1.19.82,1.69,1.53,2.15s.71,1.11.71,1.86a5.9,5.9,0,0,0,.25,1.92,8.36,8.36,0,0,1,.27.89l0,.52a.37.37,0,0,0,.21.3,2.73,2.73,0,0,1-.39,1.79,4,4,0,0,1-.89,1.66c-.5.47-1.05.31-1.72.32a3.42,3.42,0,0,1-1-.2c-.25-.06-.63-.22-.82-.25s-.6,0-.91-.12-.34-.25-.76-.14-.86.62-1.32.72c-.64.15-1.37-.15-2,0C379.72,97.52,379.71,97.59,380,97.92Z"/></g></g></g></g></svg>