<svg xmlns="http://www.w3.org/2000/svg" xmlns:xlink="http://www.w3.org/1999/xlink" viewBox="0 0 1014.23 412.65"><defs><style>.cls-1{fill:none;}.cls-2{isolation:isolate;}.cls-3{clip-path:url(#clip-path);}.cls-4{fill:url(#Áåçûìÿííûé_ãðàäèåíò_365);}.cls-5,.cls-6{mix-blend-mode:screen;opacity:0.2;}.cls-5{fill:url(#Áåçûìÿííûé_ãðàäèåíò_561);}.cls-6{fill:url(#Áåçûìÿííûé_ãðàäèåíò_561-2);}</style><clipPath id="clip-path"><rect class="cls-1" x="8.71" y="9.22" width="1000" height="400"/></clipPath><linearGradient id="Áåçûìÿííûé_ãðàäèåíò_365" x1="567.93" y1="365.06" x2="567.93" y2="52.34" gradientUnits="userSpaceOnUse"><stop offset="0" stop-color="#406bbb"/><stop offset="0.14" stop-color="#4167b8"/><stop offset="0.28" stop-color="#455bb1"/><stop offset="0.41" stop-color="#4b49a5"/><stop offset="0.51" stop-color="#47449c"/><stop offset="0.66" stop-color="#3a3583"/><stop offset="0.86" stop-color="#271d5c"/><stop offset="1" stop-color="#16093a"/></linearGradient><linearGradient id="Áåçûìÿííûé_ãðàäèåíò_561" x1="638.36" y1="149.83" x2="638.36" y2="67.05" gradientUnits="userSpaceOnUse"><stop offset="0" stop-color="#59427a"/><stop offset="1" stop-color="#8687b6"/></linearGradient><linearGradient id="Áåçûìÿííûé_ãðàäèåíò_561-2" x1="882.82" y1="167.69" x2="882.82" y2="80.04" xlink:href="#Áåçûìÿííûé_ãðàäèåíò_561"/></defs><g class="cls-2"><g id="Medieval_Town" data-name="Medieval Town"><g class="cls-3"><polygon class="cls-4" points="1008.71 356.99 1008.71 216.2 951.75 183.08 926.91 182.59 925.91 168.13 936.98 168.13 899.93 81.72 865.71 165.43 873.16 165.64 873.16 182.9 864.27 182.9 827.05 209.71 820.85 209.71 820.85 198.49 828.46 199.91 829.05 194.17 811.92 190.28 771.52 143.76 766.33 143.76 719.38 190.28 705.6 192.06 705.6 197.46 715.1 197.46 714.56 220.82 683.97 240.84 679.94 147.69 689.38 147.69 660.25 91.15 587.35 68.64 539.68 138.66 556.48 138.66 553.01 260.18 541.05 259.81 536.52 197.85 471.09 183.64 466.9 223.87 341.28 208.52 181.35 225.41 180.08 144.14 187.27 143.37 173.18 80.8 172.09 58.34 170.76 58.55 170.76 80.36 154.04 144.14 162.05 144.8 162.05 223.88 151.22 222.47 151.22 172.12 156.69 172.12 144.46 102.72 127.14 172.12 133.49 172.12 132.57 229.31 132.02 350.98 1008.71 356.99"/><polygon class="cls-5" points="587.35 68.64 623.67 136.1 689.38 147.69 660.25 91.15 587.35 68.64"/><polygon class="cls-6" points="899.93 81.72 891.69 160.3 865.71 165.43 899.93 81.72"/></g></g></g></svg>