<svg width="999" height="351" viewBox="0 0 999 351" fill="none" xmlns="http://www.w3.org/2000/svg">
<path fill-rule="evenodd" clip-rule="evenodd" d="M-0.289917 0.220001V348.81L999.71 351.79V0.220001H-0.289917Z" fill="url(#paint0_linear_3_2874)"/>
<path fill-rule="evenodd" clip-rule="evenodd" d="M730.87 73.65C730.872 73.8071 730.827 73.9612 730.741 74.0926C730.655 74.2241 730.532 74.3269 730.387 74.3879C730.242 74.4489 730.083 74.4654 729.928 74.4352C729.774 74.4051 729.633 74.3296 729.521 74.2185C729.41 74.1075 729.335 73.9658 729.305 73.8116C729.275 73.6574 729.291 73.4978 729.352 73.353C729.413 73.2083 729.516 73.085 729.647 72.999C729.779 72.9129 729.933 72.868 730.09 72.87C730.297 72.87 730.495 72.9522 730.642 73.0985C730.788 73.2447 730.87 73.4431 730.87 73.65Z" fill="#09B9EA"/>
<path fill-rule="evenodd" clip-rule="evenodd" d="M715.61 158.27C715.61 158.426 715.564 158.579 715.477 158.709C715.39 158.839 715.267 158.94 715.122 159C714.978 159.06 714.819 159.075 714.666 159.045C714.513 159.014 714.372 158.939 714.261 158.829C714.151 158.718 714.076 158.577 714.045 158.424C714.015 158.271 714.03 158.112 714.09 157.968C714.15 157.823 714.251 157.7 714.381 157.613C714.511 157.526 714.664 157.48 714.82 157.48C715.03 157.48 715.23 157.563 715.379 157.711C715.527 157.86 715.61 158.06 715.61 158.27Z" fill="#09B9EA"/>
<path d="M649.66 200.32C650.096 200.32 650.45 199.966 650.45 199.53C650.45 199.094 650.096 198.74 649.66 198.74C649.224 198.74 648.87 199.094 648.87 199.53C648.87 199.966 649.224 200.32 649.66 200.32Z" fill="#09B9EA"/>
<path d="M671.92 296.73C672.356 296.73 672.71 296.376 672.71 295.94C672.71 295.504 672.356 295.15 671.92 295.15C671.484 295.15 671.13 295.504 671.13 295.94C671.13 296.376 671.484 296.73 671.92 296.73Z" fill="#09B9EA"/>
<path fill-rule="evenodd" clip-rule="evenodd" d="M600.93 167.33C600.943 167.441 600.932 167.552 600.898 167.658C600.864 167.764 600.808 167.862 600.734 167.945C600.66 168.028 600.569 168.094 600.468 168.14C600.366 168.185 600.256 168.209 600.145 168.209C600.034 168.209 599.924 168.185 599.822 168.14C599.721 168.094 599.63 168.028 599.556 167.945C599.482 167.862 599.426 167.764 599.392 167.658C599.359 167.552 599.348 167.441 599.36 167.33C599.348 167.219 599.359 167.108 599.392 167.002C599.426 166.896 599.482 166.798 599.556 166.715C599.63 166.632 599.721 166.566 599.822 166.52C599.924 166.475 600.034 166.451 600.145 166.451C600.256 166.451 600.366 166.475 600.468 166.52C600.569 166.566 600.66 166.632 600.734 166.715C600.808 166.798 600.864 166.896 600.898 167.002C600.932 167.108 600.943 167.219 600.93 167.33V167.33Z" fill="#0970C0"/>
<path d="M562.95 150.19C563.386 150.19 563.74 149.836 563.74 149.4C563.74 148.964 563.386 148.61 562.95 148.61C562.514 148.61 562.16 148.964 562.16 149.4C562.16 149.836 562.514 150.19 562.95 150.19Z" fill="#0970C0"/>
<path d="M516.76 114.25C517.196 114.25 517.55 113.896 517.55 113.46C517.55 113.024 517.196 112.67 516.76 112.67C516.324 112.67 515.97 113.024 515.97 113.46C515.97 113.896 516.324 114.25 516.76 114.25Z" fill="#095CC0"/>
<path d="M469.19 55.42C469.626 55.42 469.98 55.0663 469.98 54.63C469.98 54.1937 469.626 53.84 469.19 53.84C468.754 53.84 468.4 54.1937 468.4 54.63C468.4 55.0663 468.754 55.42 469.19 55.42Z" fill="#095CC0"/>
<path d="M562.17 28.52C562.606 28.52 562.96 28.1663 562.96 27.73C562.96 27.2937 562.606 26.94 562.17 26.94C561.734 26.94 561.38 27.2937 561.38 27.73C561.38 28.1663 561.734 28.52 562.17 28.52Z" fill="#095CC0"/>
<path fill-rule="evenodd" clip-rule="evenodd" d="M613 166.54C613 166.75 612.917 166.95 612.769 167.099C612.621 167.247 612.42 167.33 612.21 167.33C612.001 167.33 611.8 167.247 611.651 167.099C611.503 166.95 611.42 166.75 611.42 166.54C611.42 166.33 611.503 166.13 611.651 165.981C611.8 165.833 612.001 165.75 612.21 165.75C612.42 165.75 612.621 165.833 612.769 165.981C612.917 166.13 613 166.33 613 166.54Z" fill="#095CC0"/>
<path d="M618.67 21.96C619.106 21.96 619.46 21.6063 619.46 21.17C619.46 20.7337 619.106 20.38 618.67 20.38C618.234 20.38 617.88 20.7337 617.88 21.17C617.88 21.6063 618.234 21.96 618.67 21.96Z" fill="#095CC0"/>
<path d="M460.35 350.3C460.786 350.3 461.14 349.946 461.14 349.51C461.14 349.074 460.786 348.72 460.35 348.72C459.914 348.72 459.56 349.074 459.56 349.51C459.56 349.946 459.914 350.3 460.35 350.3Z" fill="#09FFFF"/>
<path fill-rule="evenodd" clip-rule="evenodd" d="M825.53 39.14C825.543 39.2505 825.532 39.3625 825.498 39.4684C825.464 39.5744 825.408 39.6721 825.334 39.7551C825.26 39.838 825.169 39.9044 825.068 39.9498C824.966 39.9953 824.856 40.0187 824.745 40.0187C824.634 40.0187 824.524 39.9953 824.422 39.9498C824.321 39.9044 824.23 39.838 824.156 39.7551C824.082 39.6721 824.026 39.5744 823.992 39.4684C823.959 39.3625 823.948 39.2505 823.96 39.14C823.948 39.0295 823.959 38.9176 823.992 38.8116C824.026 38.7056 824.082 38.6079 824.156 38.525C824.23 38.442 824.321 38.3756 824.422 38.3302C824.524 38.2848 824.634 38.2613 824.745 38.2613C824.856 38.2613 824.966 38.2848 825.068 38.3302C825.169 38.3756 825.26 38.442 825.334 38.525C825.408 38.6079 825.464 38.7056 825.498 38.8116C825.532 38.9176 825.543 39.0295 825.53 39.14Z" fill="#0970C0"/>
<path d="M640.07 143.47C640.506 143.47 640.86 143.116 640.86 142.68C640.86 142.244 640.506 141.89 640.07 141.89C639.634 141.89 639.28 142.244 639.28 142.68C639.28 143.116 639.634 143.47 640.07 143.47Z" fill="#0970C0"/>
<path d="M439.19 105.76C439.626 105.76 439.98 105.406 439.98 104.97C439.98 104.534 439.626 104.18 439.19 104.18C438.754 104.18 438.4 104.534 438.4 104.97C438.4 105.406 438.754 105.76 439.19 105.76Z" fill="#0970C0"/>
<path d="M937 32.88C937.436 32.88 937.79 32.5263 937.79 32.09C937.79 31.6537 937.436 31.3 937 31.3C936.564 31.3 936.21 31.6537 936.21 32.09C936.21 32.5263 936.564 32.88 937 32.88Z" fill="#0970C0"/>
<path d="M480.73 146.92C481.166 146.92 481.52 146.566 481.52 146.13C481.52 145.694 481.166 145.34 480.73 145.34C480.294 145.34 479.94 145.694 479.94 146.13C479.94 146.566 480.294 146.92 480.73 146.92Z" fill="#0970C0"/>
<path d="M991.41 22.74C991.846 22.74 992.2 22.3863 992.2 21.95C992.2 21.5137 991.846 21.16 991.41 21.16C990.974 21.16 990.62 21.5137 990.62 21.95C990.62 22.3863 990.974 22.74 991.41 22.74Z" fill="#0970C0"/>
<path d="M491.03 49.89C491.466 49.89 491.82 49.5363 491.82 49.1C491.82 48.6637 491.466 48.31 491.03 48.31C490.594 48.31 490.24 48.6637 490.24 49.1C490.24 49.5363 490.594 49.89 491.03 49.89Z" fill="#0970C0"/>
<path fill-rule="evenodd" clip-rule="evenodd" d="M822.56 250.38C822.56 250.536 822.514 250.689 822.427 250.819C822.34 250.949 822.217 251.05 822.072 251.11C821.928 251.17 821.769 251.185 821.616 251.155C821.463 251.124 821.322 251.049 821.211 250.939C821.101 250.828 821.026 250.687 820.995 250.534C820.965 250.381 820.98 250.222 821.04 250.078C821.1 249.933 821.201 249.81 821.331 249.723C821.461 249.636 821.614 249.59 821.77 249.59C821.98 249.59 822.18 249.673 822.329 249.821C822.477 249.97 822.56 250.17 822.56 250.38Z" fill="#0970C0"/>
<path fill-rule="evenodd" clip-rule="evenodd" d="M394.34 141.16C394.34 141.317 394.293 141.47 394.206 141.6C394.119 141.73 393.995 141.831 393.85 141.891C393.705 141.95 393.546 141.965 393.392 141.934C393.239 141.903 393.098 141.826 392.988 141.715C392.878 141.603 392.803 141.462 392.774 141.308C392.745 141.154 392.762 140.995 392.823 140.851C392.884 140.707 392.987 140.584 393.118 140.498C393.25 140.413 393.403 140.368 393.56 140.37C393.663 140.37 393.766 140.39 393.861 140.43C393.956 140.47 394.043 140.528 394.115 140.602C394.188 140.675 394.245 140.763 394.284 140.858C394.322 140.954 394.341 141.057 394.34 141.16V141.16Z" fill="#0970C0"/>
<path d="M411.4 30.09C411.836 30.09 412.19 29.7363 412.19 29.3C412.19 28.8637 411.836 28.51 411.4 28.51C410.964 28.51 410.61 28.8637 410.61 29.3C410.61 29.7363 410.964 30.09 411.4 30.09Z" fill="#0970C0"/>
<path fill-rule="evenodd" clip-rule="evenodd" d="M757.67 215.65C757.67 215.86 757.587 216.06 757.439 216.209C757.291 216.357 757.09 216.44 756.88 216.44C756.671 216.44 756.47 216.357 756.321 216.209C756.173 216.06 756.09 215.86 756.09 215.65C756.09 215.44 756.173 215.24 756.321 215.091C756.47 214.943 756.671 214.86 756.88 214.86C757.09 214.86 757.291 214.943 757.439 215.091C757.587 215.24 757.67 215.44 757.67 215.65V215.65Z" fill="#0970C0"/>
<path d="M517.55 85.56C517.986 85.56 518.34 85.2063 518.34 84.77C518.34 84.3337 517.986 83.98 517.55 83.98C517.114 83.98 516.76 84.3337 516.76 84.77C516.76 85.2063 517.114 85.56 517.55 85.56Z" fill="#0970C0"/>
<path d="M701.43 273.2C701.866 273.2 702.22 272.846 702.22 272.41C702.22 271.974 701.866 271.62 701.43 271.62C700.994 271.62 700.64 271.974 700.64 272.41C700.64 272.846 700.994 273.2 701.43 273.2Z" fill="#0970C0"/>
<path d="M833.87 89.48C834.306 89.48 834.66 89.1263 834.66 88.69C834.66 88.2537 834.306 87.9 833.87 87.9C833.434 87.9 833.08 88.2537 833.08 88.69C833.08 89.1263 833.434 89.48 833.87 89.48Z" fill="#09B9EA"/>
<path d="M872.44 96.02C872.876 96.02 873.23 95.6663 873.23 95.23C873.23 94.7937 872.876 94.44 872.44 94.44C872.004 94.44 871.65 94.7937 871.65 95.23C871.65 95.6663 872.004 96.02 872.44 96.02Z" fill="#0970C0"/>
<path fill-rule="evenodd" clip-rule="evenodd" d="M782.67 299.12C782.672 299.277 782.627 299.43 782.542 299.562C782.456 299.693 782.334 299.796 782.189 299.857C782.045 299.918 781.886 299.935 781.732 299.906C781.578 299.877 781.437 299.802 781.325 299.692C781.214 299.582 781.137 299.441 781.106 299.288C781.075 299.134 781.09 298.975 781.149 298.83C781.209 298.685 781.31 298.561 781.44 298.474C781.57 298.387 781.723 298.34 781.88 298.34C782.088 298.34 782.287 298.422 782.435 298.568C782.583 298.714 782.667 298.912 782.67 299.12V299.12Z" fill="#0970C0"/>
<path fill-rule="evenodd" clip-rule="evenodd" d="M457.45 118C457.45 118.157 457.403 118.31 457.316 118.44C457.229 118.57 457.105 118.671 456.96 118.731C456.815 118.79 456.656 118.805 456.502 118.774C456.349 118.743 456.208 118.666 456.098 118.555C455.988 118.443 455.913 118.302 455.884 118.148C455.855 117.994 455.872 117.835 455.933 117.691C455.994 117.547 456.097 117.424 456.228 117.338C456.36 117.253 456.513 117.208 456.67 117.21C456.878 117.213 457.076 117.297 457.222 117.445C457.368 117.593 457.45 117.792 457.45 118V118Z" fill="#09FFFF"/>
<path d="M708 129.04C708.436 129.04 708.79 128.686 708.79 128.25C708.79 127.814 708.436 127.46 708 127.46C707.564 127.46 707.21 127.814 707.21 128.25C707.21 128.686 707.564 129.04 708 129.04Z" fill="#09FFFF"/>
<path d="M522.22 29.3C522.656 29.3 523.01 28.9463 523.01 28.51C523.01 28.0737 522.656 27.72 522.22 27.72C521.784 27.72 521.43 28.0737 521.43 28.51C521.43 28.9463 521.784 29.3 522.22 29.3Z" fill="#09FFFF"/>
<path d="M389.5 88.69C389.936 88.69 390.29 88.3363 390.29 87.9C390.29 87.4637 389.936 87.11 389.5 87.11C389.064 87.11 388.71 87.4637 388.71 87.9C388.71 88.3363 389.064 88.69 389.5 88.69Z" fill="#09FFFF"/>
<path fill-rule="evenodd" clip-rule="evenodd" d="M578.05 241.72C578.052 241.877 578.007 242.031 577.921 242.163C577.835 242.294 577.712 242.397 577.567 242.458C577.422 242.519 577.263 242.535 577.108 242.505C576.954 242.475 576.813 242.4 576.702 242.289C576.59 242.177 576.515 242.036 576.485 241.882C576.455 241.727 576.471 241.568 576.532 241.423C576.593 241.278 576.696 241.155 576.827 241.069C576.959 240.983 577.113 240.938 577.27 240.94C577.477 240.94 577.675 241.022 577.822 241.168C577.968 241.315 578.05 241.513 578.05 241.72V241.72Z" fill="#92FFFF"/>
<path d="M722.61 58.63C723.046 58.63 723.4 58.2763 723.4 57.84C723.4 57.4037 723.046 57.05 722.61 57.05C722.174 57.05 721.82 57.4037 721.82 57.84C721.82 58.2763 722.174 58.63 722.61 58.63Z" fill="#09FFFF"/>
<path d="M871.65 166.22C872.086 166.22 872.44 165.866 872.44 165.43C872.44 164.994 872.086 164.64 871.65 164.64C871.214 164.64 870.86 164.994 870.86 165.43C870.86 165.866 871.214 166.22 871.65 166.22Z" fill="#09FFFF"/>
<path fill-rule="evenodd" clip-rule="evenodd" d="M534.91 244.3C534.912 244.457 534.867 244.611 534.781 244.743C534.695 244.874 534.572 244.977 534.427 245.038C534.282 245.099 534.123 245.115 533.968 245.085C533.814 245.055 533.673 244.98 533.562 244.869C533.45 244.757 533.375 244.616 533.345 244.462C533.315 244.307 533.331 244.148 533.392 244.003C533.453 243.858 533.556 243.735 533.687 243.649C533.819 243.563 533.973 243.518 534.13 243.52C534.337 243.52 534.535 243.602 534.682 243.748C534.828 243.895 534.91 244.093 534.91 244.3V244.3Z" fill="#09FFFF"/>
<path d="M425.56 251.96C425.996 251.96 426.35 251.606 426.35 251.17C426.35 250.734 425.996 250.38 425.56 250.38C425.124 250.38 424.77 250.734 424.77 251.17C424.77 251.606 425.124 251.96 425.56 251.96Z" fill="#09FFFF"/>
<path d="M870.87 18.15C871.306 18.15 871.66 17.7963 871.66 17.36C871.66 16.9237 871.306 16.57 870.87 16.57C870.434 16.57 870.08 16.9237 870.08 17.36C870.08 17.7963 870.434 18.15 870.87 18.15Z" fill="#09FFFF"/>
<path d="M639.64 73.66C640.076 73.66 640.43 73.3063 640.43 72.87C640.43 72.4337 640.076 72.08 639.64 72.08C639.204 72.08 638.85 72.4337 638.85 72.87C638.85 73.3063 639.204 73.66 639.64 73.66Z" fill="#09FFFF"/>
<path d="M612.95 118.78C613.386 118.78 613.74 118.426 613.74 117.99C613.74 117.554 613.386 117.2 612.95 117.2C612.514 117.2 612.16 117.554 612.16 117.99C612.16 118.426 612.514 118.78 612.95 118.78Z" fill="#09FFFF"/>
<path d="M531.67 119.03C532.106 119.03 532.46 118.676 532.46 118.24C532.46 117.804 532.106 117.45 531.67 117.45C531.234 117.45 530.88 117.804 530.88 118.24C530.88 118.676 531.234 119.03 531.67 119.03Z" fill="#09FFFF"/>
<path d="M556.97 256.24C557.406 256.24 557.76 255.886 557.76 255.45C557.76 255.014 557.406 254.66 556.97 254.66C556.534 254.66 556.18 255.014 556.18 255.45C556.18 255.886 556.534 256.24 556.97 256.24Z" fill="#09FFFF"/>
<path d="M254.57 186.77C255.006 186.77 255.36 186.416 255.36 185.98C255.36 185.544 255.006 185.19 254.57 185.19C254.134 185.19 253.78 185.544 253.78 185.98C253.78 186.416 254.134 186.77 254.57 186.77Z" fill="#09B9EA"/>
<path d="M205.05 154.57C205.486 154.57 205.84 154.216 205.84 153.78C205.84 153.344 205.486 152.99 205.05 152.99C204.614 152.99 204.26 153.344 204.26 153.78C204.26 154.216 204.614 154.57 205.05 154.57Z" fill="#0970C0"/>
<path d="M167.86 136.64C168.296 136.64 168.65 136.286 168.65 135.85C168.65 135.414 168.296 135.06 167.86 135.06C167.424 135.06 167.07 135.414 167.07 135.85C167.07 136.286 167.424 136.64 167.86 136.64Z" fill="#0970C0"/>
<path d="M121.67 100.7C122.106 100.7 122.46 100.346 122.46 99.91C122.46 99.4737 122.106 99.12 121.67 99.12C121.234 99.12 120.88 99.4737 120.88 99.91C120.88 100.346 121.234 100.7 121.67 100.7Z" fill="#095CC0"/>
<path d="M74.1001 41.87C74.5364 41.87 74.8901 41.5163 74.8901 41.08C74.8901 40.6437 74.5364 40.29 74.1001 40.29C73.6638 40.29 73.3101 40.6437 73.3101 41.08C73.3101 41.5163 73.6638 41.87 74.1001 41.87Z" fill="#095CC0"/>
<path d="M167.07 14.97C167.506 14.97 167.86 14.6163 167.86 14.18C167.86 13.7437 167.506 13.39 167.07 13.39C166.634 13.39 166.28 13.7437 166.28 14.18C166.28 14.6163 166.634 14.97 167.07 14.97Z" fill="#095CC0"/>
<path d="M87.34 219.28C87.7763 219.28 88.13 218.926 88.13 218.49C88.13 218.054 87.7763 217.7 87.34 217.7C86.9037 217.7 86.55 218.054 86.55 218.49C86.55 218.926 86.9037 219.28 87.34 219.28Z" fill="#095CC0"/>
<path d="M217.06 153.78C217.496 153.78 217.85 153.426 217.85 152.99C217.85 152.554 217.496 152.2 217.06 152.2C216.624 152.2 216.27 152.554 216.27 152.99C216.27 153.426 216.624 153.78 217.06 153.78Z" fill="#095CC0"/>
<path d="M223.58 8.41C224.016 8.41 224.37 8.05631 224.37 7.62C224.37 7.1837 224.016 6.83 223.58 6.83C223.144 6.83 222.79 7.1837 222.79 7.62C222.79 8.05631 223.144 8.41 223.58 8.41Z" fill="#095CC0"/>
<path d="M44.1001 92.21C44.5364 92.21 44.8901 91.8563 44.8901 91.42C44.8901 90.9837 44.5364 90.63 44.1001 90.63C43.6638 90.63 43.3101 90.9837 43.3101 91.42C43.3101 91.8563 43.6638 92.21 44.1001 92.21Z" fill="#0970C0"/>
<path d="M85.6401 133.37C86.0764 133.37 86.4301 133.016 86.4301 132.58C86.4301 132.144 86.0764 131.79 85.6401 131.79C85.2038 131.79 84.8501 132.144 84.8501 132.58C84.8501 133.016 85.2038 133.37 85.6401 133.37Z" fill="#0970C0"/>
<path d="M95.94 36.34C96.3763 36.34 96.73 35.9863 96.73 35.55C96.73 35.1137 96.3763 34.76 95.94 34.76C95.5037 34.76 95.15 35.1137 95.15 35.55C95.15 35.9863 95.5037 36.34 95.94 36.34Z" fill="#0970C0"/>
<path d="M91.6101 243.48C92.0464 243.48 92.4001 243.126 92.4001 242.69C92.4001 242.254 92.0464 241.9 91.6101 241.9C91.1738 241.9 90.8201 242.254 90.8201 242.69C90.8201 243.126 91.1738 243.48 91.6101 243.48Z" fill="#0970C0"/>
<path d="M16.3 16.54C16.7363 16.54 17.09 16.1863 17.09 15.75C17.09 15.3137 16.7363 14.96 16.3 14.96C15.8637 14.96 15.51 15.3137 15.51 15.75C15.51 16.1863 15.8637 16.54 16.3 16.54Z" fill="#0970C0"/>
<path d="M122.45 72.01C122.886 72.01 123.24 71.6563 123.24 71.22C123.24 70.7837 122.886 70.43 122.45 70.43C122.014 70.43 121.66 70.7837 121.66 71.22C121.66 71.6563 122.014 72.01 122.45 72.01Z" fill="#0970C0"/>
<path d="M61.57 105.23C62.0063 105.23 62.36 104.876 62.36 104.44C62.36 104.004 62.0063 103.65 61.57 103.65C61.1337 103.65 60.78 104.004 60.78 104.44C60.78 104.876 61.1337 105.23 61.57 105.23Z" fill="#09FFFF"/>
<path d="M127.13 15.75C127.566 15.75 127.92 15.3963 127.92 14.96C127.92 14.5237 127.566 14.17 127.13 14.17C126.694 14.17 126.34 14.5237 126.34 14.96C126.34 15.3963 126.694 15.75 127.13 15.75Z" fill="#09FFFF"/>
<path d="M182.17 228.96C182.606 228.96 182.96 228.606 182.96 228.17C182.96 227.734 182.606 227.38 182.17 227.38C181.734 227.38 181.38 227.734 181.38 228.17C181.38 228.606 181.734 228.96 182.17 228.96Z" fill="#92FFFF"/>
<path d="M139.03 231.54C139.466 231.54 139.82 231.186 139.82 230.75C139.82 230.314 139.466 229.96 139.03 229.96C138.594 229.96 138.24 230.314 138.24 230.75C138.24 231.186 138.594 231.54 139.03 231.54Z" fill="#09FFFF"/>
<path d="M30.46 238.41C30.8963 238.41 31.25 238.056 31.25 237.62C31.25 237.184 30.8963 236.83 30.46 236.83C30.0237 236.83 29.67 237.184 29.67 237.62C29.67 238.056 30.0237 238.41 30.46 238.41Z" fill="#09FFFF"/>
<path d="M244.54 60.11C244.976 60.11 245.33 59.7563 245.33 59.32C245.33 58.8837 244.976 58.53 244.54 58.53C244.104 58.53 243.75 58.8837 243.75 59.32C243.75 59.7563 244.104 60.11 244.54 60.11Z" fill="#09FFFF"/>
<path d="M217.85 105.23C218.286 105.23 218.64 104.876 218.64 104.44C218.64 104.004 218.286 103.65 217.85 103.65C217.414 103.65 217.06 104.004 217.06 104.44C217.06 104.876 217.414 105.23 217.85 105.23Z" fill="#09FFFF"/>
<path d="M139.12 111.03C139.556 111.03 139.91 110.676 139.91 110.24C139.91 109.804 139.556 109.45 139.12 109.45C138.684 109.45 138.33 109.804 138.33 110.24C138.33 110.676 138.684 111.03 139.12 111.03Z" fill="#09FFFF"/>
<path d="M161.88 242.69C162.316 242.69 162.67 242.336 162.67 241.9C162.67 241.464 162.316 241.11 161.88 241.11C161.444 241.11 161.09 241.464 161.09 241.9C161.09 242.336 161.444 242.69 161.88 242.69Z" fill="#09FFFF"/>
<path d="M817.36 241.23C817.796 241.23 818.15 240.876 818.15 240.44C818.15 240.004 817.796 239.65 817.36 239.65C816.924 239.65 816.57 240.004 816.57 240.44C816.57 240.876 816.924 241.23 817.36 241.23Z" fill="#09FFFF"/>
<path d="M927.28 141.92C927.716 141.92 928.07 141.566 928.07 141.13C928.07 140.694 927.716 140.34 927.28 140.34C926.844 140.34 926.49 140.694 926.49 141.13C926.49 141.566 926.844 141.92 927.28 141.92Z" fill="#0970C0"/>
<path d="M862.39 107.2C862.826 107.2 863.18 106.846 863.18 106.41C863.18 105.974 862.826 105.62 862.39 105.62C861.954 105.62 861.6 105.974 861.6 106.41C861.6 106.846 861.954 107.2 862.39 107.2Z" fill="#0970C0"/>
<path d="M340.12 26.68C340.556 26.68 340.91 26.3263 340.91 25.89C340.91 25.4537 340.556 25.1 340.12 25.1C339.684 25.1 339.33 25.4537 339.33 25.89C339.33 26.3263 339.684 26.68 340.12 26.68Z" fill="#0970C0"/>
<path d="M806.94 163.95C807.376 163.95 807.73 163.596 807.73 163.16C807.73 162.724 807.376 162.37 806.94 162.37C806.504 162.37 806.15 162.724 806.15 163.16C806.15 163.596 806.504 163.95 806.94 163.95Z" fill="#0970C0"/>
<path fill-rule="evenodd" clip-rule="evenodd" d="M888.18 189.88C888.18 190.036 888.134 190.189 888.047 190.319C887.96 190.449 887.837 190.55 887.692 190.61C887.548 190.67 887.389 190.685 887.236 190.655C887.083 190.624 886.942 190.549 886.831 190.439C886.721 190.328 886.646 190.187 886.615 190.034C886.585 189.881 886.6 189.722 886.66 189.578C886.72 189.433 886.821 189.31 886.951 189.223C887.081 189.136 887.234 189.09 887.39 189.09C887.6 189.09 887.8 189.173 887.949 189.321C888.097 189.47 888.18 189.67 888.18 189.88V189.88Z" fill="#0970C0"/>
<path fill-rule="evenodd" clip-rule="evenodd" d="M923.65 131.2C923.65 131.356 923.604 131.509 923.517 131.639C923.43 131.769 923.307 131.87 923.162 131.93C923.018 131.99 922.859 132.005 922.706 131.975C922.553 131.944 922.412 131.869 922.301 131.759C922.191 131.648 922.116 131.507 922.085 131.354C922.055 131.201 922.07 131.042 922.13 130.898C922.19 130.753 922.291 130.63 922.421 130.543C922.551 130.456 922.704 130.41 922.86 130.41C922.964 130.409 923.067 130.428 923.164 130.467C923.26 130.507 923.348 130.565 923.422 130.638C923.495 130.712 923.553 130.8 923.593 130.896C923.632 130.993 923.651 131.096 923.65 131.2V131.2Z" fill="#09FFFF"/>
<g style="mix-blend-mode:multiply">
<path style="mix-blend-mode:screen" opacity="0.6" fill-rule="evenodd" clip-rule="evenodd" d="M577.12 6.22C577.12 6.22 452.88 -7.5 332.83 24.89C332.83 24.89 373.58 21.56 387.9 21.56C387.9 21.56 295.11 32.06 265.69 50.81C236.27 69.56 371.6 70.31 371.6 70.31C371.6 70.31 360.74 71.81 343.99 72.81C385.588 74.4006 427.246 73.2314 468.69 69.31C537.24 62.81 439.41 47.68 439.41 47.68C439.41 47.68 529.24 12.56 664.41 20.22C799.58 27.88 599.88 78.22 599.88 78.22L641.79 70.56C641.79 70.56 571.64 101.49 463.92 116.27C463.92 116.27 561.78 105.89 695.16 68.27C828.54 30.65 863.82 -1.44 863.82 -1.44C863.82 -1.44 544.94 -18.44 336.15 -1.44C336.15 -1.44 532.06 -1.44 577.12 6.22Z" fill="url(#paint1_linear_3_2874)"/>
<path style="mix-blend-mode:screen" opacity="0.5" fill-rule="evenodd" clip-rule="evenodd" d="M666.09 99.81C666.09 99.81 730.2 95.56 778.54 84.56L762.63 92.12C762.63 92.12 860.51 76.56 932.44 43.06L881.76 53.64C881.76 53.64 931.16 34.06 952.27 18.06C973.38 2.06 917.42 5.56 826.15 41.06C826.15 41.06 828.41 17.82 734.61 87.56C734.61 87.56 712.32 93.56 666.09 99.81Z" fill="url(#paint2_linear_3_2874)"/>
<path style="mix-blend-mode:screen" opacity="0.5" fill-rule="evenodd" clip-rule="evenodd" d="M901.5 75.27C901.5 75.27 928.5 75.27 965.31 64.27L957.86 63.34C957.86 63.34 963.25 55.17 949.2 54.05C935.15 52.93 901.5 75.27 901.5 75.27Z" fill="url(#paint3_linear_3_2874)"/>
<path style="mix-blend-mode:screen" opacity="0.5" fill-rule="evenodd" clip-rule="evenodd" d="M383.39 130.48C383.39 130.48 428.52 127.35 465.28 116.34L439.75 118.54C439.75 118.54 445.14 110.37 431.09 109.25C417.04 108.13 383.39 130.48 383.39 130.48Z" fill="url(#paint4_linear_3_2874)"/>
<path style="mix-blend-mode:screen" opacity="0.5" fill-rule="evenodd" clip-rule="evenodd" d="M207.58 71.52C207.58 71.52 294 53.18 360.51 89C360.51 89 331.62 79.31 304.97 79.11C304.97 79.11 318.63 80.68 323.13 89.74C327.63 98.8 271.19 110.42 207.58 71.52Z" fill="url(#paint5_linear_3_2874)"/>
<path style="mix-blend-mode:screen" opacity="0.5" fill-rule="evenodd" clip-rule="evenodd" d="M556.31 32.57C556.31 32.57 593.62 17.74 639.67 27.74C639.67 27.74 584.5 28.91 556.31 32.57Z" fill="url(#paint6_linear_3_2874)"/>
</g>
<defs>
<linearGradient id="paint0_linear_3_2874" x1="499.71" y1="351.79" x2="499.71" y2="0.220001" gradientUnits="userSpaceOnUse">
<stop stop-color="#C5AEFF"/>
<stop offset="0.11" stop-color="#AEA4F3"/>
<stop offset="0.34" stop-color="#738AD3"/>
<stop offset="0.6" stop-color="#2C6CAE"/>
<stop offset="0.82" stop-color="#2D347D"/>
<stop offset="1" stop-color="#2E0452"/>
</linearGradient>
<linearGradient id="paint1_linear_3_2874" x1="562.66" y1="116.27" x2="562.66" y2="-9" gradientUnits="userSpaceOnUse">
<stop stop-color="#59427A"/>
<stop offset="1" stop-color="#C28781"/>
</linearGradient>
<linearGradient id="paint2_linear_3_2874" x1="811.4" y1="99.81" x2="811.4" y2="8.94" gradientUnits="userSpaceOnUse">
<stop stop-color="#59427A"/>
<stop offset="1" stop-color="#C28781"/>
</linearGradient>
<linearGradient id="paint3_linear_3_2874" x1="932.192" y1="79.1134" x2="935.522" y2="52.3397" gradientUnits="userSpaceOnUse">
<stop stop-color="#59427A"/>
<stop offset="1" stop-color="#C28781"/>
</linearGradient>
<linearGradient id="paint4_linear_3_2874" x1="422.81" y1="135.392" x2="426.142" y2="108.608" gradientUnits="userSpaceOnUse">
<stop stop-color="#59427A"/>
<stop offset="1" stop-color="#C28781"/>
</linearGradient>
<linearGradient id="paint5_linear_3_2874" x1="281.191" y1="96.9964" x2="284.54" y2="66.8549" gradientUnits="userSpaceOnUse">
<stop stop-color="#59427A"/>
<stop offset="1" stop-color="#C28781"/>
</linearGradient>
<linearGradient id="paint6_linear_3_2874" x1="597.99" y1="32.57" x2="597.99" y2="24.28" gradientUnits="userSpaceOnUse">
<stop stop-color="#59427A"/>
<stop offset="1" stop-color="#C28781"/>
</linearGradient>
</defs>
</svg>
