<svg xmlns="http://www.w3.org/2000/svg" xmlns:xlink="http://www.w3.org/1999/xlink" viewBox="0 0 1014.23 412.65"><defs><style>.cls-1{fill:none;}.cls-2{isolation:isolate;}.cls-3{clip-path:url(#clip-path);}.cls-10,.cls-100,.cls-101,.cls-102,.cls-103,.cls-104,.cls-105,.cls-106,.cls-107,.cls-108,.cls-109,.cls-11,.cls-110,.cls-111,.cls-112,.cls-113,.cls-114,.cls-115,.cls-116,.cls-117,.cls-118,.cls-119,.cls-12,.cls-120,.cls-121,.cls-122,.cls-123,.cls-124,.cls-125,.cls-126,.cls-127,.cls-128,.cls-129,.cls-13,.cls-130,.cls-131,.cls-132,.cls-133,.cls-134,.cls-135,.cls-136,.cls-137,.cls-138,.cls-139,.cls-14,.cls-140,.cls-141,.cls-142,.cls-143,.cls-144,.cls-145,.cls-146,.cls-147,.cls-148,.cls-149,.cls-15,.cls-150,.cls-151,.cls-152,.cls-153,.cls-154,.cls-155,.cls-156,.cls-157,.cls-158,.cls-159,.cls-16,.cls-160,.cls-161,.cls-162,.cls-163,.cls-164,.cls-165,.cls-166,.cls-167,.cls-168,.cls-169,.cls-17,.cls-170,.cls-171,.cls-172,.cls-173,.cls-174,.cls-175,.cls-176,.cls-177,.cls-178,.cls-18,.cls-19,.cls-20,.cls-21,.cls-22,.cls-23,.cls-24,.cls-25,.cls-26,.cls-27,.cls-28,.cls-29,.cls-30,.cls-31,.cls-32,.cls-33,.cls-34,.cls-35,.cls-36,.cls-37,.cls-38,.cls-39,.cls-4,.cls-40,.cls-41,.cls-42,.cls-43,.cls-44,.cls-45,.cls-46,.cls-47,.cls-48,.cls-49,.cls-5,.cls-50,.cls-51,.cls-52,.cls-53,.cls-54,.cls-55,.cls-56,.cls-57,.cls-58,.cls-59,.cls-6,.cls-60,.cls-61,.cls-62,.cls-63,.cls-64,.cls-65,.cls-66,.cls-67,.cls-68,.cls-69,.cls-7,.cls-70,.cls-71,.cls-72,.cls-73,.cls-74,.cls-75,.cls-76,.cls-77,.cls-78,.cls-79,.cls-8,.cls-80,.cls-81,.cls-82,.cls-83,.cls-84,.cls-85,.cls-86,.cls-87,.cls-88,.cls-89,.cls-9,.cls-90,.cls-91,.cls-92,.cls-93,.cls-94,.cls-95,.cls-96,.cls-97,.cls-98,.cls-99{fill-rule:evenodd;}.cls-4{fill:url(#Áåçûìÿííûé_ãðàäèåíò_284);}.cls-5{fill:url(#Áåçûìÿííûé_ãðàäèåíò_221);}.cls-6{fill:url(#Áåçûìÿííûé_ãðàäèåíò_344);}.cls-7{fill:#eb7351;}.cls-8{fill:url(#Áåçûìÿííûé_ãðàäèåíò_291);}.cls-9{fill:url(#Áåçûìÿííûé_ãðàäèåíò_280);}.cls-10{fill:url(#Áåçûìÿííûé_ãðàäèåíò_280-2);}.cls-11{fill:url(#Áåçûìÿííûé_ãðàäèåíò_221-2);}.cls-12{fill:url(#Áåçûìÿííûé_ãðàäèåíò_295);}.cls-13{fill:url(#Áåçûìÿííûé_ãðàäèåíò_303);}.cls-14{fill:url(#Áåçûìÿííûé_ãðàäèåíò_291-2);}.cls-15{fill:url(#Áåçûìÿííûé_ãðàäèåíò_295-2);}.cls-16{fill:url(#Áåçûìÿííûé_ãðàäèåíò_280-3);}.cls-17{fill:url(#Áåçûìÿííûé_ãðàäèåíò_296);}.cls-18{fill:url(#Áåçûìÿííûé_ãðàäèåíò_92);}.cls-19{fill:url(#Áåçûìÿííûé_ãðàäèåíò_297);}.cls-20{fill:url(#Áåçûìÿííûé_ãðàäèåíò_92-2);}.cls-21{fill:url(#Áåçûìÿííûé_ãðàäèåíò_104);}.cls-22{fill:url(#Áåçûìÿííûé_ãðàäèåíò_104-2);}.cls-23{fill:url(#Áåçûìÿííûé_ãðàäèåíò_104-3);}.cls-24{fill:url(#Áåçûìÿííûé_ãðàäèåíò_104-4);}.cls-25{fill:url(#Áåçûìÿííûé_ãðàäèåíò_104-5);}.cls-26{fill:url(#Áåçûìÿííûé_ãðàäèåíò_92-3);}.cls-27{fill:url(#Áåçûìÿííûé_ãðàäèåíò_92-4);}.cls-28{fill:url(#Áåçûìÿííûé_ãðàäèåíò_296-2);}.cls-29{fill:url(#Áåçûìÿííûé_ãðàäèåíò_104-6);}.cls-30{fill:url(#Áåçûìÿííûé_ãðàäèåíò_296-3);}.cls-31{fill:url(#Áåçûìÿííûé_ãðàäèåíò_104-7);}.cls-32{fill:url(#Áåçûìÿííûé_ãðàäèåíò_104-8);}.cls-33{fill:url(#Áåçûìÿííûé_ãðàäèåíò_298);}.cls-34{fill:url(#Áåçûìÿííûé_ãðàäèåíò_299);}.cls-35{fill:url(#Áåçûìÿííûé_ãðàäèåíò_299-2);}.cls-36{fill:url(#Áåçûìÿííûé_ãðàäèåíò_297-2);}.cls-37{fill:url(#Áåçûìÿííûé_ãðàäèåíò_104-9);}.cls-38{fill:url(#Áåçûìÿííûé_ãðàäèåíò_104-10);}.cls-39{fill:url(#Áåçûìÿííûé_ãðàäèåíò_107);}.cls-40{fill:url(#Áåçûìÿííûé_ãðàäèåíò_104-11);}.cls-41{fill:url(#Áåçûìÿííûé_ãðàäèåíò_297-3);}.cls-42{fill:url(#Áåçûìÿííûé_ãðàäèåíò_297-4);}.cls-43{fill:url(#Áåçûìÿííûé_ãðàäèåíò_297-5);}.cls-44{fill:url(#Áåçûìÿííûé_ãðàäèåíò_297-6);}.cls-45{fill:url(#Áåçûìÿííûé_ãðàäèåíò_104-12);}.cls-46{fill:url(#Áåçûìÿííûé_ãðàäèåíò_297-7);}.cls-47{fill:url(#Áåçûìÿííûé_ãðàäèåíò_104-13);}.cls-48{fill:url(#Áåçûìÿííûé_ãðàäèåíò_104-14);}.cls-49{fill:url(#Áåçûìÿííûé_ãðàäèåíò_107-2);}.cls-50{fill:url(#Áåçûìÿííûé_ãðàäèåíò_297-8);}.cls-51{fill:url(#Áåçûìÿííûé_ãðàäèåíò_297-9);}.cls-52{fill:url(#Áåçûìÿííûé_ãðàäèåíò_297-10);}.cls-53{fill:url(#Áåçûìÿííûé_ãðàäèåíò_104-15);}.cls-54{fill:url(#Áåçûìÿííûé_ãðàäèåíò_297-11);}.cls-55{fill:url(#Áåçûìÿííûé_ãðàäèåíò_104-16);}.cls-56{fill:url(#Áåçûìÿííûé_ãðàäèåíò_104-17);}.cls-57{fill:url(#Áåçûìÿííûé_ãðàäèåíò_107-3);}.cls-58{fill:url(#Áåçûìÿííûé_ãðàäèåíò_297-12);}.cls-59{fill:url(#Áåçûìÿííûé_ãðàäèåíò_297-13);}.cls-60{fill:url(#Áåçûìÿííûé_ãðàäèåíò_297-14);}.cls-61{fill:url(#Áåçûìÿííûé_ãðàäèåíò_104-18);}.cls-62{fill:url(#Áåçûìÿííûé_ãðàäèåíò_297-15);}.cls-63{fill:url(#Áåçûìÿííûé_ãðàäèåíò_104-19);}.cls-64{fill:url(#Áåçûìÿííûé_ãðàäèåíò_104-20);}.cls-65{fill:url(#Áåçûìÿííûé_ãðàäèåíò_107-4);}.cls-66{fill:url(#Áåçûìÿííûé_ãðàäèåíò_297-16);}.cls-67{fill:url(#Áåçûìÿííûé_ãðàäèåíò_297-17);}.cls-68{fill:url(#Áåçûìÿííûé_ãðàäèåíò_104-21);}.cls-69{fill:url(#Áåçûìÿííûé_ãðàäèåíò_296-4);}.cls-70{fill:url(#Áåçûìÿííûé_ãðàäèåíò_104-22);}.cls-71{fill:url(#Áåçûìÿííûé_ãðàäèåíò_296-5);}.cls-72{fill:url(#Áåçûìÿííûé_ãðàäèåíò_284-2);}.cls-73{fill:url(#Áåçûìÿííûé_ãðàäèåíò_354);}.cls-74{fill:url(#Áåçûìÿííûé_ãðàäèåíò_104-23);}.cls-75{fill:url(#Áåçûìÿííûé_ãðàäèåíò_104-24);}.cls-76{fill:url(#Áåçûìÿííûé_ãðàäèåíò_297-18);}.cls-77{fill:url(#Áåçûìÿííûé_ãðàäèåíò_264);}.cls-78{fill:url(#Áåçûìÿííûé_ãðàäèåíò_92-5);}.cls-79{fill:url(#Áåçûìÿííûé_ãðàäèåíò_21);}.cls-80{fill:url(#Áåçûìÿííûé_ãðàäèåíò_154);}.cls-81{fill:url(#Áåçûìÿííûé_ãðàäèåíò_107-5);}.cls-82{fill:url(#Áåçûìÿííûé_ãðàäèåíò_291-3);}.cls-83{fill:url(#Áåçûìÿííûé_ãðàäèåíò_291-4);}.cls-84{fill:#ff954a;}.cls-101,.cls-84,.cls-98{mix-blend-mode:screen;}.cls-84,.cls-98{opacity:0.2;}.cls-85{fill:#d55c63;opacity:0.3;}.cls-100,.cls-85,.cls-95{mix-blend-mode:multiply;}.cls-86{fill:url(#Áåçûìÿííûé_ãðàäèåíò_295-4);}.cls-87{fill:url(#Áåçûìÿííûé_ãðàäèåíò_295-5);}.cls-88{fill:url(#Áåçûìÿííûé_ãðàäèåíò_295-6);}.cls-89{fill:url(#Áåçûìÿííûé_ãðàäèåíò_295-7);}.cls-90{fill:url(#Áåçûìÿííûé_ãðàäèåíò_295-8);}.cls-91{fill:url(#Áåçûìÿííûé_ãðàäèåíò_295-9);}.cls-92{fill:url(#Áåçûìÿííûé_ãðàäèåíò_303-2);}.cls-93{fill:url(#Áåçûìÿííûé_ãðàäèåíò_295-10);}.cls-94{fill:url(#Áåçûìÿííûé_ãðàäèåíò_295-11);}.cls-95{fill:#98256b;}.cls-100,.cls-95{opacity:0.5;}.cls-96{fill:url(#Áåçûìÿííûé_ãðàäèåíò_92-6);}.cls-97{fill:url(#Áåçûìÿííûé_ãðàäèåíò_355);}.cls-98{fill:#bd6600;}.cls-99{fill:url(#Áåçûìÿííûé_ãðàäèåíò_280-4);}.cls-100{fill:#ffcaa9;}.cls-101{fill:#d995ff;opacity:0.43;}.cls-102{fill:url(#Áåçûìÿííûé_ãðàäèåíò_153);}.cls-103{fill:url(#Áåçûìÿííûé_ãðàäèåíò_178);}.cls-104{fill:url(#Áåçûìÿííûé_ãðàäèåíò_40);}.cls-105{fill:url(#Áåçûìÿííûé_ãðàäèåíò_170);}.cls-106{fill:url(#Áåçûìÿííûé_ãðàäèåíò_170-2);}.cls-107{fill:url(#Áåçûìÿííûé_ãðàäèåíò_40-2);}.cls-108{fill:url(#Áåçûìÿííûé_ãðàäèåíò_178-2);}.cls-109{fill:url(#Áåçûìÿííûé_ãðàäèåíò_33);}.cls-110{fill:url(#Áåçûìÿííûé_ãðàäèåíò_191);}.cls-111{fill:url(#Áåçûìÿííûé_ãðàäèåíò_178-3);}.cls-112{fill:url(#Áåçûìÿííûé_ãðàäèåíò_153-2);}.cls-113{fill:url(#Áåçûìÿííûé_ãðàäèåíò_153-3);}.cls-114{fill:url(#Áåçûìÿííûé_ãðàäèåíò_153-4);}.cls-115{fill:url(#Áåçûìÿííûé_ãðàäèåíò_153-5);}.cls-116{fill:url(#Áåçûìÿííûé_ãðàäèåíò_153-6);}.cls-117{fill:url(#Áåçûìÿííûé_ãðàäèåíò_153-7);}.cls-118{fill:url(#Áåçûìÿííûé_ãðàäèåíò_153-8);}.cls-119{fill:url(#Áåçûìÿííûé_ãðàäèåíò_153-9);}.cls-120{fill:url(#Áåçûìÿííûé_ãðàäèåíò_153-10);}.cls-121{fill:url(#Áåçûìÿííûé_ãðàäèåíò_153-11);}.cls-122{fill:url(#Áåçûìÿííûé_ãðàäèåíò_153-12);}.cls-123{fill:url(#Áåçûìÿííûé_ãðàäèåíò_153-13);}.cls-124{fill:url(#Áåçûìÿííûé_ãðàäèåíò_153-14);}.cls-125{fill:url(#Áåçûìÿííûé_ãðàäèåíò_153-15);}.cls-126{fill:url(#Áåçûìÿííûé_ãðàäèåíò_153-16);}.cls-127{fill:#da5a42;}.cls-128{fill:url(#Áåçûìÿííûé_ãðàäèåíò_33-2);}.cls-129{fill:url(#Áåçûìÿííûé_ãðàäèåíò_33-3);}.cls-130{fill:url(#Áåçûìÿííûé_ãðàäèåíò_92-7);}.cls-131{fill:url(#Áåçûìÿííûé_ãðàäèåíò_21-2);}.cls-132{fill:url(#Áåçûìÿííûé_ãðàäèåíò_77);}.cls-133{fill:url(#Áåçûìÿííûé_ãðàäèåíò_107-6);}.cls-134{fill:url(#Áåçûìÿííûé_ãðàäèåíò_104-25);}.cls-135{fill:url(#Áåçûìÿííûé_ãðàäèåíò_154-2);}.cls-136{fill:url(#Áåçûìÿííûé_ãðàäèåíò_154-3);}.cls-137{fill:url(#Áåçûìÿííûé_ãðàäèåíò_154-4);}.cls-138{fill:url(#Áåçûìÿííûé_ãðàäèåíò_154-5);}.cls-139{fill:url(#Áåçûìÿííûé_ãðàäèåíò_92-8);}.cls-140{fill:url(#Áåçûìÿííûé_ãðàäèåíò_21-3);}.cls-141{fill:url(#Áåçûìÿííûé_ãðàäèåíò_19);}.cls-142{fill:url(#Áåçûìÿííûé_ãðàäèåíò_21-4);}.cls-143{fill:url(#Áåçûìÿííûé_ãðàäèåíò_92-9);}.cls-144{fill:url(#Áåçûìÿííûé_ãðàäèåíò_104-26);}.cls-145{fill:url(#Áåçûìÿííûé_ãðàäèåíò_92-10);}.cls-146{fill:url(#Áåçûìÿííûé_ãðàäèåíò_21-5);}.cls-147{fill:url(#Áåçûìÿííûé_ãðàäèåíò_77-2);}.cls-148{fill:url(#Áåçûìÿííûé_ãðàäèåíò_107-7);}.cls-149{fill:url(#Áåçûìÿííûé_ãðàäèåíò_77-3);}.cls-150{fill:url(#Áåçûìÿííûé_ãðàäèåíò_154-6);}.cls-151{fill:url(#Áåçûìÿííûé_ãðàäèåíò_156);}.cls-152{fill:url(#Áåçûìÿííûé_ãðàäèåíò_92-11);}.cls-153{fill:url(#Áåçûìÿííûé_ãðàäèåíò_21-6);}.cls-154{fill:url(#Áåçûìÿííûé_ãðàäèåíò_77-4);}.cls-155{fill:url(#Áåçûìÿííûé_ãðàäèåíò_107-8);}.cls-156{fill:url(#Áåçûìÿííûé_ãðàäèåíò_77-5);}.cls-157{fill:url(#Áåçûìÿííûé_ãðàäèåíò_154-7);}.cls-158{fill:url(#Áåçûìÿííûé_ãðàäèåíò_156-2);}.cls-159{fill:url(#Áåçûìÿííûé_ãðàäèåíò_92-12);}.cls-160{fill:url(#Áåçûìÿííûé_ãðàäèåíò_21-7);}.cls-161{fill:url(#Áåçûìÿííûé_ãðàäèåíò_77-6);}.cls-162{fill:url(#Áåçûìÿííûé_ãðàäèåíò_107-9);}.cls-163{fill:url(#Áåçûìÿííûé_ãðàäèåíò_77-7);}.cls-164{fill:url(#Áåçûìÿííûé_ãðàäèåíò_154-8);}.cls-165{fill:url(#Áåçûìÿííûé_ãðàäèåíò_156-3);}.cls-166{fill:url(#Áåçûìÿííûé_ãðàäèåíò_92-13);}.cls-167{fill:url(#Áåçûìÿííûé_ãðàäèåíò_21-8);}.cls-168{fill:url(#Áåçûìÿííûé_ãðàäèåíò_77-8);}.cls-169{fill:url(#Áåçûìÿííûé_ãðàäèåíò_107-10);}.cls-170{fill:url(#Áåçûìÿííûé_ãðàäèåíò_77-9);}.cls-171{fill:url(#Áåçûìÿííûé_ãðàäèåíò_154-9);}.cls-172{fill:url(#Áåçûìÿííûé_ãðàäèåíò_156-4);}.cls-173{fill:url(#Áåçûìÿííûé_ãðàäèåíò_92-14);}.cls-174{fill:url(#Áåçûìÿííûé_ãðàäèåíò_104-27);}.cls-175{fill:url(#Áåçûìÿííûé_ãðàäèåíò_92-15);}.cls-176{fill:url(#Áåçûìÿííûé_ãðàäèåíò_104-28);}.cls-177{fill:url(#Áåçûìÿííûé_ãðàäèåíò_153-17);}.cls-178{fill:url(#Áåçûìÿííûé_ãðàäèåíò_178-4);}</style><clipPath id="clip-path"><rect class="cls-1" x="8.71" y="9.22" width="1000" height="400"/></clipPath><linearGradient id="Áåçûìÿííûé_ãðàäèåíò_284" x1="196.61" y1="281.9" x2="196.61" y2="212.33" gradientUnits="userSpaceOnUse"><stop offset="0" stop-color="#841604"/><stop offset="0.98" stop-color="#590001"/></linearGradient><linearGradient id="Áåçûìÿííûé_ãðàäèåíò_221" x1="93.43" y1="356.78" x2="93.43" y2="270.63" gradientUnits="userSpaceOnUse"><stop offset="0" stop-color="#ffdbc6"/><stop offset="0.99" stop-color="#ffe3d0"/></linearGradient><linearGradient id="Áåçûìÿííûé_ãðàäèåíò_344" x1="189.82" y1="356.67" x2="189.82" y2="222.5" gradientUnits="userSpaceOnUse"><stop offset="0" stop-color="#ae951e"/><stop offset="0.99" stop-color="#ceb32d"/></linearGradient><linearGradient id="Áåçûìÿííûé_ãðàäèåíò_291" x1="97.87" y1="278.05" x2="97.87" y2="207.72" gradientUnits="userSpaceOnUse"><stop offset="0" stop-color="#b32f1f"/><stop offset="0.98" stop-color="#d13d18"/></linearGradient><linearGradient id="Áåçûìÿííûé_ãðàäèåíò_280" x1="63.01" y1="279.96" x2="63.01" y2="277.81" gradientUnits="userSpaceOnUse"><stop offset="0" stop-color="#841604"/><stop offset="0.98" stop-color="#811201"/></linearGradient><linearGradient id="Áåçûìÿííûé_ãðàäèåíò_280-2" x1="69.4" y1="271.2" x2="69.4" y2="185.02" xlink:href="#Áåçûìÿííûé_ãðàäèåíò_280"/><linearGradient id="Áåçûìÿííûé_ãðàäèåíò_221-2" x1="84.64" y1="356.78" x2="84.64" y2="198.76" xlink:href="#Áåçûìÿííûé_ãðàäèåíò_221"/><linearGradient id="Áåçûìÿííûé_ãðàäèåíò_295" x1="192.22" y1="281.9" x2="192.22" y2="207.72" gradientUnits="userSpaceOnUse"><stop offset="0" stop-color="#841604"/><stop offset="0.98" stop-color="#a11201"/></linearGradient><linearGradient id="Áåçûìÿííûé_ãðàäèåíò_303" x1="82.23" y1="271.2" x2="82.23" y2="178.15" gradientUnits="userSpaceOnUse"><stop offset="0" stop-color="#d12f1f"/><stop offset="0.98" stop-color="#ef5b18"/></linearGradient><linearGradient id="Áåçûìÿííûé_ãðàäèåíò_291-2" x1="158.03" y1="278.05" x2="158.03" y2="207.72" xlink:href="#Áåçûìÿííûé_ãðàäèåíò_291"/><linearGradient id="Áåçûìÿííûé_ãðàäèåíò_295-2" x1="119.92" y1="271" x2="119.92" y2="178.15" xlink:href="#Áåçûìÿííûé_ãðàäèåíò_295"/><linearGradient id="Áåçûìÿííûé_ãðàäèåíò_280-3" x1="143.62" y1="279.96" x2="143.62" y2="277.99" xlink:href="#Áåçûìÿííûé_ãðàäèåíò_280"/><linearGradient id="Áåçûìÿííûé_ãðàäèåíò_296" x1="84.64" y1="272.77" x2="84.64" y2="197.84" gradientUnits="userSpaceOnUse"><stop offset="0.02" stop-color="#ff721d"/><stop offset="1" stop-color="#ff881e"/></linearGradient><linearGradient id="Áåçûìÿííûé_ãðàäèåíò_92" x1="114.75" y1="356.78" x2="114.75" y2="258.75" gradientUnits="userSpaceOnUse"><stop offset="0" stop-color="#ff881e"/><stop offset="0.98" stop-color="#ff721d"/></linearGradient><radialGradient id="Áåçûìÿííûé_ãðàäèåíò_297" cx="85.11" cy="262.96" r="20.14" xlink:href="#Áåçûìÿííûé_ãðàäèåíò_92"/><linearGradient id="Áåçûìÿííûé_ãðàäèåíò_92-2" x1="97.43" y1="276.47" x2="113.07" y2="276.47" xlink:href="#Áåçûìÿííûé_ãðàäèåíò_92"/><linearGradient id="Áåçûìÿííûé_ãðàäèåíò_104" x1="117.39" y1="356.78" x2="117.39" y2="264.27" gradientUnits="userSpaceOnUse"><stop offset="0.02" stop-color="#ca4a0b"/><stop offset="1" stop-color="#a91a1c"/></linearGradient><linearGradient id="Áåçûìÿííûé_ãðàäèåíò_104-2" x1="59.09" y1="233.03" x2="90.73" y2="233.03" xlink:href="#Áåçûìÿííûé_ãðàäèåíò_104"/><linearGradient id="Áåçûìÿííûé_ãðàäèåíò_104-3" x1="57.77" y1="356.78" x2="57.77" y2="264.86" xlink:href="#Áåçûìÿííûé_ãðàäèåíò_104"/><linearGradient id="Áåçûìÿííûé_ãðàäèåíò_104-4" x1="56.69" y1="275.52" x2="73.16" y2="275.52" xlink:href="#Áåçûìÿííûé_ãðàäèåíò_104"/><linearGradient id="Áåçûìÿííûé_ãðàäèåíò_104-5" x1="102.9" y1="273.46" x2="113.07" y2="273.46" xlink:href="#Áåçûìÿííûé_ãðàäèåíò_104"/><linearGradient id="Áåçûìÿííûé_ãðàäèåíò_92-3" x1="54.54" y1="356.69" x2="54.54" y2="261.06" xlink:href="#Áåçûìÿííûé_ãðàäèåíò_92"/><linearGradient id="Áåçûìÿííûé_ãðàäèåíò_92-4" x1="56.69" y1="275.52" x2="71.35" y2="275.52" xlink:href="#Áåçûìÿííûé_ãðàäèåíò_92"/><linearGradient id="Áåçûìÿííûé_ãðàäèåíò_296-2" x1="19.99" y1="356.78" x2="19.99" y2="279.46" xlink:href="#Áåçûìÿííûé_ãðàäèåíò_296"/><linearGradient id="Áåçûìÿííûé_ãðàäèåíò_104-6" x1="23.18" y1="356.67" x2="23.18" y2="279.48" xlink:href="#Áåçûìÿííûé_ãðàäèåíò_104"/><linearGradient id="Áåçûìÿííûé_ãðàäèåíò_296-3" x1="166.87" y1="356.67" x2="166.87" y2="272.77" xlink:href="#Áåçûìÿííûé_ãðàäèåíò_296"/><linearGradient id="Áåçûìÿííûé_ãðàäèåíò_104-7" x1="170.99" y1="356.69" x2="170.99" y2="264.86" xlink:href="#Áåçûìÿííûé_ãðàäèåíò_104"/><linearGradient id="Áåçûìÿííûé_ãðàäèåíò_104-8" x1="207.93" y1="356.78" x2="207.93" y2="267.99" xlink:href="#Áåçûìÿííûé_ãðàäèåíò_104"/><radialGradient id="Áåçûìÿííûé_ãðàäèåíò_298" cx="190.86" cy="268.03" r="12.71" xlink:href="#Áåçûìÿííûé_ãðàäèåíò_104"/><linearGradient id="Áåçûìÿííûé_ãðàäèåíò_299" x1="202.43" y1="289.59" x2="202.43" y2="270.73" xlink:href="#Áåçûìÿííûé_ãðàäèåíò_104"/><linearGradient id="Áåçûìÿííûé_ãðàäèåíò_299-2" x1="179.78" y1="289.59" x2="179.78" y2="270.3" xlink:href="#Áåçûìÿííûé_ãðàäèåíò_104"/><radialGradient id="Áåçûìÿííûé_ãðàäèåíò_297-2" cx="87.32" cy="254.19" r="9.22" xlink:href="#Áåçûìÿííûé_ãðàäèåíò_92"/><linearGradient id="Áåçûìÿííûé_ãðàäèåíò_104-9" x1="99.8" y1="254.19" x2="102.01" y2="254.19" xlink:href="#Áåçûìÿííûé_ãðàäèåíò_104"/><linearGradient id="Áåçûìÿííûé_ãðàäèåíò_104-10" x1="87.86" y1="252.64" x2="87.86" y2="238.37" xlink:href="#Áåçûìÿííûé_ãðàäèåíò_104"/><linearGradient id="Áåçûìÿííûé_ãðàäèåíò_107" x1="90.14" y1="252.64" x2="90.14" y2="238.37" gradientUnits="userSpaceOnUse"><stop offset="0.03" stop-color="#814252"/><stop offset="1" stop-color="#2a0d2f"/></linearGradient><linearGradient id="Áåçûìÿííûé_ãðàäèåíò_104-11" x1="88.43" y1="243.81" x2="100.69" y2="243.81" xlink:href="#Áåçûìÿííûé_ãðàäèåíò_104"/><radialGradient id="Áåçûìÿííûé_ãðàäèåíò_297-3" cx="87.7" cy="244.03" r="10.3" xlink:href="#Áåçûìÿííûé_ãðàäèåíò_92"/><radialGradient id="Áåçûìÿííûé_ãðàäèåíò_297-4" cx="85.15" cy="247.97" r="3.96" xlink:href="#Áåçûìÿííûé_ãðàäèåíò_92"/><radialGradient id="Áåçûìÿííûé_ãðàäèåíò_297-5" cx="90.82" cy="247.97" r="3.89" xlink:href="#Áåçûìÿííûé_ãðàäèåíò_92"/><radialGradient id="Áåçûìÿííûé_ãðàäèåíò_297-6" cx="84.4" cy="290.51" r="13.5" xlink:href="#Áåçûìÿííûé_ãðàäèåíò_92"/><linearGradient id="Áåçûìÿííûé_ãðàäèåíò_104-12" x1="89.23" y1="307.25" x2="89.23" y2="273.76" xlink:href="#Áåçûìÿííûé_ãðàäèåíò_104"/><radialGradient id="Áåçûìÿííûé_ãðàäèåíò_297-7" cx="84.03" cy="308.01" r="6.33" xlink:href="#Áåçûìÿííûé_ãðàäèåíò_92"/><linearGradient id="Áåçûìÿííûé_ãðàäèåíò_104-13" x1="93.16" y1="309.58" x2="93.16" y2="306.44" xlink:href="#Áåçûìÿííûé_ãðàäèåíò_104"/><linearGradient id="Áåçûìÿííûé_ãðàäèåíò_104-14" x1="84.37" y1="306.44" x2="84.37" y2="277.46" xlink:href="#Áåçûìÿííûé_ãðàäèåíò_104"/><linearGradient id="Áåçûìÿííûé_ãðàäèåíò_107-2" x1="85.32" y1="306.44" x2="85.32" y2="279.27" xlink:href="#Áåçûìÿííûé_ãðàäèåíò_107"/><radialGradient id="Áåçûìÿííûé_ãðàäèåíò_297-8" cx="84.88" cy="287.26" r="4.54" xlink:href="#Áåçûìÿííûé_ãðàäèåíò_92"/><radialGradient id="Áåçûìÿííûé_ãðàäèåíò_297-9" cx="85.1" cy="297.18" r="6.57" xlink:href="#Áåçûìÿííûé_ãðàäèåíò_92"/><radialGradient id="Áåçûìÿííûé_ãðàäèåíò_297-10" cx="38.8" cy="304.17" r="13.5" xlink:href="#Áåçûìÿííûé_ãðàäèåíò_92"/><linearGradient id="Áåçûìÿííûé_ãðàäèåíò_104-15" x1="43.63" y1="320.92" x2="43.63" y2="287.42" xlink:href="#Áåçûìÿííûé_ãðàäèåíò_104"/><radialGradient id="Áåçûìÿííûé_ãðàäèåíò_297-11" cx="38.43" cy="321.67" r="6.33" xlink:href="#Áåçûìÿííûé_ãðàäèåíò_92"/><linearGradient id="Áåçûìÿííûé_ãðàäèåíò_104-16" x1="47.56" y1="323.24" x2="47.56" y2="320.1" xlink:href="#Áåçûìÿííûé_ãðàäèåíò_104"/><linearGradient id="Áåçûìÿííûé_ãðàäèåíò_104-17" x1="38.77" y1="320.1" x2="38.77" y2="291.12" xlink:href="#Áåçûìÿííûé_ãðàäèåíò_104"/><linearGradient id="Áåçûìÿííûé_ãðàäèåíò_107-3" x1="39.72" y1="320.1" x2="39.72" y2="292.94" xlink:href="#Áåçûìÿííûé_ãðàäèåíò_107"/><radialGradient id="Áåçûìÿííûé_ãðàäèåíò_297-12" cx="39.28" cy="300.92" r="4.54" xlink:href="#Áåçûìÿííûé_ãðàäèåíò_92"/><radialGradient id="Áåçûìÿííûé_ãðàäèåíò_297-13" cx="39.5" cy="310.84" r="6.57" xlink:href="#Áåçûìÿííûé_ãðàäèåíò_92"/><radialGradient id="Áåçûìÿííûé_ãðàäèåíò_297-14" cx="148.2" cy="304.17" r="13.5" xlink:href="#Áåçûìÿííûé_ãðàäèåíò_92"/><linearGradient id="Áåçûìÿííûé_ãðàäèåíò_104-18" x1="153.04" y1="320.92" x2="153.04" y2="287.42" xlink:href="#Áåçûìÿííûé_ãðàäèåíò_104"/><radialGradient id="Áåçûìÿííûé_ãðàäèåíò_297-15" cx="147.84" cy="321.67" r="6.33" xlink:href="#Áåçûìÿííûé_ãðàäèåíò_92"/><linearGradient id="Áåçûìÿííûé_ãðàäèåíò_104-19" x1="156.96" y1="323.24" x2="156.96" y2="320.1" xlink:href="#Áåçûìÿííûé_ãðàäèåíò_104"/><linearGradient id="Áåçûìÿííûé_ãðàäèåíò_104-20" x1="148.17" y1="320.1" x2="148.17" y2="291.12" xlink:href="#Áåçûìÿííûé_ãðàäèåíò_104"/><linearGradient id="Áåçûìÿííûé_ãðàäèåíò_107-4" x1="149.13" y1="320.1" x2="149.13" y2="292.94" xlink:href="#Áåçûìÿííûé_ãðàäèåíò_107"/><radialGradient id="Áåçûìÿííûé_ãðàäèåíò_297-16" cx="148.69" cy="300.92" r="4.54" xlink:href="#Áåçûìÿííûé_ãðàäèåíò_92"/><radialGradient id="Áåçûìÿííûé_ãðàäèåíò_297-17" cx="148.91" cy="310.84" r="6.57" xlink:href="#Áåçûìÿííûé_ãðàäèåíò_92"/><linearGradient id="Áåçûìÿííûé_ãðàäèåíò_104-21" x1="1989.26" y1="338.06" x2="2007.62" y2="338.06" gradientTransform="matrix(-0.74, -0.03, -0.05, 1, 1692.77, 33.35)" xlink:href="#Áåçûìÿííûé_ãðàäèåíò_104"/><linearGradient id="Áåçûìÿííûé_ãðàäèåíò_296-4" x1="1732.74" y1="354.73" x2="1732.74" y2="321.24" gradientTransform="matrix(-1, -0.05, -0.05, 1, 1935.47, 44.68)" xlink:href="#Áåçûìÿííûé_ãðàäèåíò_296"/><linearGradient id="Áåçûìÿííûé_ãðàäèåíò_104-22" x1="1989.26" y1="355.56" x2="2006.89" y2="355.56" gradientTransform="matrix(-0.74, -0.03, -0.05, 1, 1692.77, 33.35)" xlink:href="#Áåçûìÿííûé_ãðàäèåíò_104"/><linearGradient id="Áåçûìÿííûé_ãðàäèåíò_296-5" x1="1735.52" y1="357.06" x2="1735.52" y2="353.92" gradientTransform="matrix(-1, -0.05, -0.05, 1, 1935.47, 44.68)" xlink:href="#Áåçûìÿííûé_ãðàäèåíò_296"/><linearGradient id="Áåçûìÿííûé_ãðàäèåíò_284-2" x1="1728.63" y1="353.92" x2="1728.63" y2="324.94" gradientTransform="matrix(-1, -0.05, -0.05, 1, 1935.47, 44.68)" xlink:href="#Áåçûìÿííûé_ãðàäèåíò_284"/><linearGradient id="Áåçûìÿííûé_ãðàäèåíò_354" x1="1729.33" y1="353.92" x2="1729.33" y2="326.75" gradientTransform="matrix(-1, -0.05, -0.05, 1, 1935.47, 44.68)" gradientUnits="userSpaceOnUse"><stop offset="0.03" stop-color="#722c3e"/><stop offset="1" stop-color="#1f0024"/></linearGradient><linearGradient id="Áåçûìÿííûé_ãðàäèåíò_104-23" x1="1992.55" y1="334.81" x2="2005.31" y2="334.81" gradientTransform="matrix(-0.74, -0.03, -0.05, 1, 1692.77, 33.35)" xlink:href="#Áåçûìÿííûé_ãðàäèåíò_104"/><linearGradient id="Áåçûìÿííûé_ãðàäèåíò_104-24" x1="1998.41" y1="344.73" x2="1999.87" y2="344.73" gradientTransform="matrix(-0.74, -0.03, -0.05, 1, 1692.77, 33.35)" xlink:href="#Áåçûìÿííûé_ãðàäèåíò_104"/><radialGradient id="Áåçûìÿííûé_ãðàäèåíò_297-18" cx="85.18" cy="316.99" r="19.33" xlink:href="#Áåçûìÿííûé_ãðàäèåíò_92"/><linearGradient id="Áåçûìÿííûé_ãðàäèåíò_264" x1="85.11" y1="356.79" x2="85.11" y2="324.26" gradientUnits="userSpaceOnUse"><stop offset="0" stop-color="#a91a1c"/><stop offset="0.98" stop-color="#ca4a0b"/></linearGradient><linearGradient id="Áåçûìÿííûé_ãðàäèåíò_92-5" x1="84.18" y1="356.79" x2="84.18" y2="324.26" xlink:href="#Áåçûìÿííûé_ãðàäèåíò_92"/><linearGradient id="Áåçûìÿííûé_ãðàäèåíò_21" x1="84.18" y1="356.03" x2="84.18" y2="326.71" gradientUnits="userSpaceOnUse"><stop offset="0.02" stop-color="#ab2f0b"/><stop offset="1" stop-color="#9d131c"/></linearGradient><linearGradient id="Áåçûìÿííûé_ãðàäèåíò_154" x1="84.91" y1="356.03" x2="84.91" y2="326.76" gradientUnits="userSpaceOnUse"><stop offset="0" stop-color="#f1691e"/><stop offset="0.98" stop-color="#d6451d"/></linearGradient><linearGradient id="Áåçûìÿííûé_ãðàäèåíò_107-5" x1="85.35" y1="336.4" x2="85.35" y2="327.98" xlink:href="#Áåçûìÿííûé_ãðàäèåíò_107"/><linearGradient id="Áåçûìÿííûé_ãðàäèåíò_291-3" x1="23.14" y1="277.81" x2="23.14" y2="207.72" xlink:href="#Áåçûìÿííûé_ãðàäèåíò_291"/><linearGradient id="Áåçûìÿííûé_ãðàäèåíò_291-4" x1="134.68" y1="277.99" x2="134.68" y2="211.13" xlink:href="#Áåçûìÿííûé_ãðàäèåíò_291"/><linearGradient id="Áåçûìÿííûé_ãðàäèåíò_295-4" x1="155.03" y1="264.78" x2="155.03" y2="262.96" xlink:href="#Áåçûìÿííûé_ãðàäèåíò_295"/><linearGradient id="Áåçûìÿííûé_ãðàäèåíò_295-5" x1="148.45" y1="262.96" x2="148.45" y2="238.37" xlink:href="#Áåçûìÿííûé_ãðàäèåíò_295"/><linearGradient id="Áåçûìÿííûé_ãðàäèåíò_295-6" x1="151.46" y1="239.06" x2="151.46" y2="238.37" xlink:href="#Áåçûìÿííûé_ãðàäèåíò_295"/><linearGradient id="Áåçûìÿííûé_ãðàäèåíò_295-7" x1="174.82" y1="231.11" x2="174.82" y2="210.88" xlink:href="#Áåçûìÿííûé_ãðàäèåíò_295"/><linearGradient id="Áåçûìÿííûé_ãðàäèåíò_295-8" x1="34.99" y1="234.12" x2="34.99" y2="233.03" xlink:href="#Áåçûìÿííûé_ãðàäèåíò_295"/><linearGradient id="Áåçûìÿííûé_ãðàäèåíò_295-9" x1="27.97" y1="261.27" x2="27.97" y2="233.03" xlink:href="#Áåçûìÿííûé_ãðàäèåíò_295"/><linearGradient id="Áåçûìÿííûé_ãðàäèåíò_303-2" x1="82.04" y1="271.2" x2="82.04" y2="188.58" xlink:href="#Áåçûìÿííûé_ãðàäèåíò_303"/><linearGradient id="Áåçûìÿííûé_ãðàäèåíò_295-10" x1="145.9" y1="278.05" x2="145.9" y2="267.99" xlink:href="#Áåçûìÿííûé_ãðàäèåíò_295"/><linearGradient id="Áåçûìÿííûé_ãðàäèåíò_295-11" x1="32.3" y1="278.05" x2="32.3" y2="269.53" xlink:href="#Áåçûìÿííûé_ãðàäèåíò_295"/><linearGradient id="Áåçûìÿííûé_ãðàäèåíò_92-6" x1="69.87" y1="355.35" x2="93.73" y2="355.35" xlink:href="#Áåçûìÿííûé_ãðàäèåíò_92"/><linearGradient id="Áåçûìÿííûé_ãðàäèåíò_355" x1="95.21" y1="356.79" x2="95.21" y2="353.91" xlink:href="#Áåçûìÿííûé_ãðàäèåíò_264"/><linearGradient id="Áåçûìÿííûé_ãðàäèåíò_280-4" x1="123.65" y1="249.59" x2="123.65" y2="248.68" xlink:href="#Áåçûìÿííûé_ãðàäèåíò_280"/><linearGradient id="Áåçûìÿííûé_ãðàäèåíò_153" x1="842.23" y1="301.68" x2="846.25" y2="301.68" gradientUnits="userSpaceOnUse"><stop offset="0" stop-color="#f99a59"/><stop offset="0.99" stop-color="#ff9063"/></linearGradient><linearGradient id="Áåçûìÿííûé_ãðàäèåíò_178" x1="871.63" y1="217.05" x2="871.63" y2="165.85" gradientUnits="userSpaceOnUse"><stop offset="0" stop-color="#5f5007"/><stop offset="0.99" stop-color="#663b09"/></linearGradient><linearGradient id="Áåçûìÿííûé_ãðàäèåíò_40" x1="890.95" y1="361.73" x2="890.95" y2="204.8" gradientUnits="userSpaceOnUse"><stop offset="0" stop-color="#ffc9a9"/><stop offset="0.99" stop-color="#ffc7a1"/></linearGradient><linearGradient id="Áåçûìÿííûé_ãðàäèåíò_170" x1="943.92" y1="224.9" x2="943.92" y2="164.39" gradientUnits="userSpaceOnUse"><stop offset="0" stop-color="#866b1e"/><stop offset="0.99" stop-color="#845f09"/></linearGradient><linearGradient id="Áåçûìÿííûé_ãðàäèåíò_170-2" x1="966.11" y1="228.7" x2="966.11" y2="204.8" xlink:href="#Áåçûìÿííûé_ãðàäèåíò_170"/><linearGradient id="Áåçûìÿííûé_ãðàäèåíò_40-2" x1="842.58" y1="189.78" x2="939.26" y2="189.78" xlink:href="#Áåçûìÿííûé_ãðàäèåíò_40"/><linearGradient id="Áåçûìÿííûé_ãðàäèåíò_178-2" x1="960.22" y1="228.7" x2="960.22" y2="210.45" xlink:href="#Áåçûìÿííûé_ãðàäèåíò_178"/><linearGradient id="Áåçûìÿííûé_ãðàäèåíò_33" x1="887.07" y1="212.37" x2="887.07" y2="164.39" gradientUnits="userSpaceOnUse"><stop offset="0" stop-color="#aea21e"/><stop offset="0.99" stop-color="#958809"/></linearGradient><linearGradient id="Áåçûìÿííûé_ãðàäèåíò_191" x1="892.85" y1="165.75" x2="892.85" y2="155.61" gradientUnits="userSpaceOnUse"><stop offset="0" stop-color="#cfa21e"/><stop offset="0.99" stop-color="#beb409"/></linearGradient><linearGradient id="Áåçûìÿííûé_ãðàäèåíò_178-3" x1="920.59" y1="178.26" x2="920.59" y2="155.61" xlink:href="#Áåçûìÿííûé_ãðàäèåíò_178"/><linearGradient id="Áåçûìÿííûé_ãðàäèåíò_153-2" x1="919.67" y1="243.13" x2="939.98" y2="243.13" xlink:href="#Áåçûìÿííûé_ãðàäèåíò_153"/><linearGradient id="Áåçûìÿííûé_ãðàäèåíò_153-3" x1="929.83" y1="266.08" x2="939.25" y2="266.08" xlink:href="#Áåçûìÿííûé_ãðàäèåíò_153"/><linearGradient id="Áåçûìÿííûé_ãðàäèåíò_153-4" x1="931.64" y1="287.66" x2="938.34" y2="287.66" xlink:href="#Áåçûìÿííûé_ãðàäèåíò_153"/><linearGradient id="Áåçûìÿííûé_ãðàäèåíò_153-5" x1="919.67" y1="304.41" x2="937.72" y2="304.41" xlink:href="#Áåçûìÿííûé_ãðàäèåíò_153"/><linearGradient id="Áåçûìÿííûé_ãðàäèåíò_153-6" x1="929.83" y1="323.31" x2="937.03" y2="323.31" xlink:href="#Áåçûìÿííûé_ãðàäèåíò_153"/><linearGradient id="Áåçûìÿííûé_ãðàäèåíò_153-7" x1="933.43" y1="341.15" x2="936.27" y2="341.15" xlink:href="#Áåçûìÿííûé_ãðàäèåíò_153"/><linearGradient id="Áåçûìÿííûé_ãðàäèåíò_153-8" x1="919.67" y1="355.9" x2="936.27" y2="355.9" xlink:href="#Áåçûìÿííûé_ãðàäèåíò_153"/><linearGradient id="Áåçûìÿííûé_ãðàäèåíò_153-9" x1="841.96" y1="239.44" x2="858.47" y2="239.44" xlink:href="#Áåçûìÿííûé_ãðàäèåíò_153"/><linearGradient id="Áåçûìÿííûé_ãðàäèåíò_153-10" x1="842.28" y1="256.06" x2="850.21" y2="256.06" xlink:href="#Áåçûìÿííûé_ãðàäèåíò_153"/><linearGradient id="Áåçûìÿííûé_ãðàäèåíò_153-11" x1="842.69" y1="273.35" x2="850.21" y2="273.35" xlink:href="#Áåçûìÿííûé_ãðàäèåíò_153"/><linearGradient id="Áåçûìÿííûé_ãðàäèåíò_153-12" x1="843.08" y1="297" x2="846.45" y2="297" xlink:href="#Áåçûìÿííûé_ãðàäèåíò_153"/><linearGradient id="Áåçûìÿííûé_ãðàäèåíò_153-13" x1="843.6" y1="320.73" x2="853.7" y2="320.73" xlink:href="#Áåçûìÿííûé_ãðàäèåíò_153"/><linearGradient id="Áåçûìÿííûé_ãðàäèåíò_153-14" x1="844.18" y1="345.42" x2="850.21" y2="345.42" xlink:href="#Áåçûìÿííûé_ãðàäèåíò_153"/><linearGradient id="Áåçûìÿííûé_ãðàäèåíò_153-15" x1="842.58" y1="216.04" x2="853.02" y2="216.04" xlink:href="#Áåçûìÿííûé_ãðàäèåíò_153"/><linearGradient id="Áåçûìÿííûé_ãðàäèåíò_153-16" x1="924.53" y1="216.93" x2="939.26" y2="216.93" xlink:href="#Áåçûìÿííûé_ãðàäèåíò_153"/><linearGradient id="Áåçûìÿííûé_ãðàäèåíò_33-2" x1="925.3" y1="197.74" x2="925.3" y2="164.39" xlink:href="#Áåçûìÿííûé_ãðàäèåíò_33"/><linearGradient id="Áåçûìÿííûé_ãðàäèåíò_33-3" x1="856.58" y1="199.3" x2="856.58" y2="165.75" xlink:href="#Áåçûìÿííûé_ãðàäèåíò_33"/><linearGradient id="Áåçûìÿííûé_ãðàäèåíò_92-7" x1="892.33" y1="213.89" x2="892.33" y2="182.58" xlink:href="#Áåçûìÿííûé_ãðàäèåíò_92"/><linearGradient id="Áåçûìÿííûé_ãðàäèåíò_21-2" x1="892.37" y1="211.87" x2="892.37" y2="185.14" xlink:href="#Áåçûìÿííûé_ãðàäèåíò_21"/><linearGradient id="Áåçûìÿííûé_ãðàäèåíò_77" x1="892.97" y1="211.87" x2="892.97" y2="186.18" gradientUnits="userSpaceOnUse"><stop offset="0.02" stop-color="#d6451d"/><stop offset="1" stop-color="#f1691e"/></linearGradient><linearGradient id="Áåçûìÿííûé_ãðàäèåíò_107-6" x1="893.58" y1="211.23" x2="893.58" y2="187.34" xlink:href="#Áåçûìÿííûé_ãðàäèåíò_107"/><linearGradient id="Áåçûìÿííûé_ãðàäèåíò_104-25" x1="907.71" y1="213.89" x2="907.71" y2="182.58" xlink:href="#Áåçûìÿííûé_ãðàäèåíò_104"/><linearGradient id="Áåçûìÿííûé_ãðàäèåíò_154-2" x1="892.6" y1="211.34" x2="892.6" y2="187.29" xlink:href="#Áåçûìÿííûé_ãðàäèåíò_154"/><linearGradient id="Áåçûìÿííûé_ãðàäèåíò_154-3" x1="884.33" y1="211.34" x2="884.33" y2="187.5" xlink:href="#Áåçûìÿííûé_ãðàäèåíò_154"/><linearGradient id="Áåçûìÿííûé_ãðàäèåíò_154-4" x1="901.67" y1="211.34" x2="901.67" y2="187.29" xlink:href="#Áåçûìÿííûé_ãðàäèåíò_154"/><linearGradient id="Áåçûìÿííûé_ãðàäèåíò_154-5" x1="893.58" y1="192.36" x2="893.58" y2="191.25" xlink:href="#Áåçûìÿííûé_ãðàäèåíò_154"/><linearGradient id="Áåçûìÿííûé_ãðàäèåíò_92-8" x1="888.33" y1="361.73" x2="888.33" y2="326.54" xlink:href="#Áåçûìÿííûé_ãðàäèåíò_92"/><linearGradient id="Áåçûìÿííûé_ãðàäèåíò_21-3" x1="888.24" y1="361.73" x2="888.24" y2="330.77" xlink:href="#Áåçûìÿííûé_ãðàäèåíò_21"/><linearGradient id="Áåçûìÿííûé_ãðàäèåíò_19" x1="889.3" y1="361.73" x2="889.3" y2="330.77" xlink:href="#Áåçûìÿííûé_ãðàäèåíò_154"/><linearGradient id="Áåçûìÿííûé_ãðàäèåíò_21-4" x1="901.01" y1="361.73" x2="901.01" y2="326.54" xlink:href="#Áåçûìÿííûé_ãðàäèåíò_21"/><linearGradient id="Áåçûìÿííûé_ãðàäèåíò_92-9" x1="838.27" y1="228.97" x2="966.79" y2="228.97" xlink:href="#Áåçûìÿííûé_ãðàäèåíò_92"/><linearGradient id="Áåçûìÿííûé_ãðàäèåíò_104-26" x1="838.27" y1="228.97" x2="966.79" y2="228.97" xlink:href="#Áåçûìÿííûé_ãðàäèåíò_104"/><linearGradient id="Áåçûìÿííûé_ãðàäèåíò_92-10" x1="860.68" y1="281.17" x2="860.68" y2="247.33" gradientTransform="translate(-6.42 11.36) rotate(-1.59)" xlink:href="#Áåçûìÿííûé_ãðàäèåíò_92"/><linearGradient id="Áåçûìÿííûé_ãðàäèåíò_21-5" x1="860.72" y1="278.98" x2="860.72" y2="250.1" gradientTransform="translate(-6.42 11.36) rotate(-1.59)" xlink:href="#Áåçûìÿííûé_ãðàäèåíò_21"/><linearGradient id="Áåçûìÿííûé_ãðàäèåíò_77-2" x1="861.37" y1="278.98" x2="861.37" y2="251.21" gradientTransform="translate(-6.42 11.36) rotate(-1.59)" xlink:href="#Áåçûìÿííûé_ãðàäèåíò_77"/><linearGradient id="Áåçûìÿííûé_ãðàäèåíò_107-7" x1="862.02" y1="278.28" x2="862.02" y2="252.47" gradientTransform="translate(-6.42 11.36) rotate(-1.59)" xlink:href="#Áåçûìÿííûé_ãðàäèåíò_107"/><linearGradient id="Áåçûìÿííûé_ãðàäèåíò_77-3" x1="861.88" y1="278.26" x2="861.88" y2="260.55" gradientTransform="translate(-6.42 11.36) rotate(-1.59)" xlink:href="#Áåçûìÿííûé_ãðàäèåíò_77"/><linearGradient id="Áåçûìÿííûé_ãðàäèåíò_154-6" x1="862.01" y1="260.55" x2="862.01" y2="252.47" gradientTransform="translate(-6.42 11.36) rotate(-1.59)" xlink:href="#Áåçûìÿííûé_ãðàäèåíò_154"/><linearGradient id="Áåçûìÿííûé_ãðàäèåíò_156" x1="868.36" y1="281.09" x2="868.36" y2="247.33" gradientTransform="translate(-6.42 11.36) rotate(-1.59)" gradientUnits="userSpaceOnUse"><stop offset="0" stop-color="#9d131c"/><stop offset="0.98" stop-color="#ab2f0b"/></linearGradient><linearGradient id="Áåçûìÿííûé_ãðàäèåíò_92-11" x1="914.78" y1="263.9" x2="914.78" y2="230.1" gradientTransform="translate(2.82 -4.5) rotate(0.57)" xlink:href="#Áåçûìÿííûé_ãðàäèåíò_92"/><linearGradient id="Áåçûìÿííûé_ãðàäèåíò_21-6" x1="914.82" y1="261.71" x2="914.82" y2="232.86" gradientTransform="translate(2.82 -4.5) rotate(0.57)" xlink:href="#Áåçûìÿííûé_ãðàäèåíò_21"/><linearGradient id="Áåçûìÿííûé_ãðàäèåíò_77-4" x1="915.47" y1="261.71" x2="915.47" y2="233.98" gradientTransform="translate(2.82 -4.5) rotate(0.57)" xlink:href="#Áåçûìÿííûé_ãðàäèåíò_77"/><linearGradient id="Áåçûìÿííûé_ãðàäèåíò_107-8" x1="916.13" y1="261.02" x2="916.13" y2="235.24" gradientTransform="translate(2.82 -4.5) rotate(0.57)" xlink:href="#Áåçûìÿííûé_ãðàäèåíò_107"/><linearGradient id="Áåçûìÿííûé_ãðàäèåíò_77-5" x1="916.06" y1="261.02" x2="916.06" y2="243.31" gradientTransform="translate(2.82 -4.5) rotate(0.57)" xlink:href="#Áåçûìÿííûé_ãðàäèåíò_77"/><linearGradient id="Áåçûìÿííûé_ãðàäèåíò_154-7" x1="916.13" y1="243.31" x2="916.13" y2="235.24" gradientTransform="translate(2.82 -4.5) rotate(0.57)" xlink:href="#Áåçûìÿííûé_ãðàäèåíò_154"/><linearGradient id="Áåçûìÿííûé_ãðàäèåíò_156-2" x1="922.44" y1="263.9" x2="922.44" y2="230.11" gradientTransform="translate(2.82 -4.5) rotate(0.57)" xlink:href="#Áåçûìÿííûé_ãðàäèåíò_156"/><linearGradient id="Áåçûìÿííûé_ãðàäèåíò_92-12" x1="859.21" y1="334.23" x2="859.21" y2="300.14" gradientTransform="translate(-6.42 11.36) rotate(-1.59)" xlink:href="#Áåçûìÿííûé_ãðàäèåíò_92"/><linearGradient id="Áåçûìÿííûé_ãðàäèåíò_21-7" x1="859.25" y1="332.06" x2="859.25" y2="302.91" gradientTransform="translate(-6.42 11.36) rotate(-1.59)" xlink:href="#Áåçûìÿííûé_ãðàäèåíò_21"/><linearGradient id="Áåçûìÿííûé_ãðàäèåíò_77-6" x1="859.9" y1="332.06" x2="859.9" y2="304.03" gradientTransform="translate(-6.42 11.36) rotate(-1.59)" xlink:href="#Áåçûìÿííûé_ãðàäèåíò_77"/><linearGradient id="Áåçûìÿííûé_ãðàäèåíò_107-9" x1="860.55" y1="331.37" x2="860.55" y2="305.28" gradientTransform="translate(-6.42 11.36) rotate(-1.59)" xlink:href="#Áåçûìÿííûé_ãðàäèåíò_107"/><linearGradient id="Áåçûìÿííûé_ãðàäèåíò_77-7" x1="860.45" y1="331.4" x2="860.45" y2="313.36" gradientTransform="translate(-6.42 11.36) rotate(-1.59)" xlink:href="#Áåçûìÿííûé_ãðàäèåíò_77"/><linearGradient id="Áåçûìÿííûé_ãðàäèåíò_154-8" x1="860.55" y1="313.37" x2="860.55" y2="305.28" gradientTransform="translate(-6.42 11.36) rotate(-1.59)" xlink:href="#Áåçûìÿííûé_ãðàäèåíò_154"/><linearGradient id="Áåçûìÿííûé_ãðàäèåíò_156-3" x1="866.89" y1="334.23" x2="866.89" y2="300.14" xlink:href="#Áåçûìÿííûé_ãðàäèåíò_156"/><linearGradient id="Áåçûìÿííûé_ãðàäèåíò_92-13" x1="915.3" y1="316.67" x2="915.3" y2="282.92" gradientTransform="translate(2.82 -4.5) rotate(0.57)" xlink:href="#Áåçûìÿííûé_ãðàäèåíò_92"/><linearGradient id="Áåçûìÿííûé_ãðàäèåíò_21-8" x1="915.35" y1="314.48" x2="915.35" y2="285.69" gradientTransform="translate(2.82 -4.5) rotate(0.57)" xlink:href="#Áåçûìÿííûé_ãðàäèåíò_21"/><linearGradient id="Áåçûìÿííûé_ãðàäèåíò_77-8" x1="916" y1="314.48" x2="916" y2="286.81" gradientTransform="translate(2.82 -4.5) rotate(0.57)" xlink:href="#Áåçûìÿííûé_ãðàäèåíò_77"/><linearGradient id="Áåçûìÿííûé_ãðàäèåíò_107-10" x1="916.65" y1="313.79" x2="916.65" y2="288.07" gradientTransform="translate(2.82 -4.5) rotate(0.57)" xlink:href="#Áåçûìÿííûé_ãðàäèåíò_107"/><linearGradient id="Áåçûìÿííûé_ãðàäèåíò_77-9" x1="916.58" y1="313.84" x2="916.58" y2="296.14" gradientTransform="translate(2.82 -4.5) rotate(0.57)" xlink:href="#Áåçûìÿííûé_ãðàäèåíò_77"/><linearGradient id="Áåçûìÿííûé_ãðàäèåíò_154-9" x1="916.65" y1="296.14" x2="916.65" y2="288.07" gradientTransform="translate(2.82 -4.5) rotate(0.57)" xlink:href="#Áåçûìÿííûé_ãðàäèåíò_154"/><linearGradient id="Áåçûìÿííûé_ãðàäèåíò_156-4" x1="922.97" y1="316.67" x2="922.97" y2="282.94" gradientTransform="translate(2.82 -4.5) rotate(0.57)" xlink:href="#Áåçûìÿííûé_ãðàäèåíò_156"/><linearGradient id="Áåçûìÿííûé_ãðàäèåíò_92-14" x1="838.27" y1="281.93" x2="963.84" y2="281.93" xlink:href="#Áåçûìÿííûé_ãðàäèåíò_92"/><linearGradient id="Áåçûìÿííûé_ãðàäèåíò_104-27" x1="838.27" y1="281.93" x2="963.84" y2="281.93" xlink:href="#Áåçûìÿííûé_ãðàäèåíò_104"/><linearGradient id="Áåçûìÿííûé_ãðàäèåíò_92-15" x1="888.57" y1="326.54" x2="888.57" y2="226.35" xlink:href="#Áåçûìÿííûé_ãðàäèåíò_92"/><linearGradient id="Áåçûìÿííûé_ãðàäèåíò_104-28" x1="891.35" y1="326.54" x2="891.35" y2="226.35" xlink:href="#Áåçûìÿííûé_ãðàäèåíò_104"/><linearGradient id="Áåçûìÿííûé_ãðàäèåíò_153-17" x1="843.62" y1="357.19" x2="919.67" y2="357.19" xlink:href="#Áåçûìÿííûé_ãðàäèåíò_153"/><linearGradient id="Áåçûìÿííûé_ãðàäèåíò_178-4" x1="941.6" y1="203.4" x2="941.6" y2="196.18" xlink:href="#Áåçûìÿííûé_ãðàäèåíò_178"/></defs><g class="cls-2"><g id="Medieval_Town" data-name="Medieval Town"><g class="cls-3"><polygon class="cls-4" points="191.66 281.9 174.91 220.53 194.62 212.33 218.32 281.9 191.66 281.9"/><polygon class="cls-5" points="168.67 356.67 19.63 356.78 17.31 276.4 169.56 270.63 168.67 356.67"/><polygon class="cls-6" points="210.97 274.56 206.92 356.67 168.67 356.67 169.56 270.63 191.75 222.5 210.97 274.56"/><polygon class="cls-7" points="210.97 274.56 206.92 356.67 168.67 356.67 169.56 270.63 191.75 222.5 210.97 274.56"/><polygon class="cls-8" points="36.74 208.84 41.19 212.1 188.66 210.77 195.13 207.72 171.94 264.76 162.05 278.05 0.61 277.81 36.74 208.84"/><polygon class="cls-9" points="0.61 277.81 3.91 279.39 125.41 279.96 120.93 277.99 0.61 277.81"/><polygon class="cls-10" points="54.9 271.2 95.84 204.57 88.59 185.02 42.96 268.9 54.9 271.2"/><polygon class="cls-11" points="54.5 356.69 51.71 266.13 89.22 198.76 117.58 261.27 115.42 356.78 54.5 356.69"/><polygon class="cls-12" points="195.13 207.72 222.39 279.96 218.32 281.9 195.13 217.79 166.3 279.96 162.05 278.05 195.13 207.72"/><polygon class="cls-7" points="132.99 356.45 135.16 265.75 117.58 261.27 115.42 356.78 132.99 356.45"/><polygon class="cls-13" points="42.96 268.9 86.56 191.53 120.17 271.2 125.41 271 91.4 188.58 91.4 178.16 83.64 178.16 82.61 188.58 39.05 268.09 42.96 268.9"/><polygon class="cls-14" points="151.92 212.33 120.93 277.99 162.05 278.05 195.13 207.72 188.66 210.77 151.92 212.33"/><polygon class="cls-15" points="91.4 178.16 93.43 178.9 93.43 185.61 148.43 211.13 125.41 271 91.4 188.58 91.4 178.16"/><polygon class="cls-16" points="120.93 277.99 125.41 279.96 166.3 279.96 162.05 278.05 120.93 277.99"/><polygon class="cls-17" points="51.71 266.13 52.65 272.77 89.94 205 117.34 269.28 117.58 264.27 89.22 197.84 51.71 266.13"/><polygon class="cls-18" points="115.42 356.78 117.58 264.27 113.19 258.75 111.92 356.78 115.42 356.78"/><polygon class="cls-19" points="56.69 261.06 113.52 261.06 113.06 264.86 56.69 264.86 56.69 261.06"/><polygon class="cls-20" points="112.81 288.17 97.44 264.78 102.9 264.86 113.07 282.07 112.81 288.17"/><polygon class="cls-21" points="117.58 264.27 119.36 267.9 117.33 356.78 115.42 356.78 117.58 264.27"/><polygon class="cls-22" points="59.09 261.06 61.44 261.06 90.73 206.98 89.94 205 59.09 261.06"/><polygon class="cls-23" points="57.01 264.86 56.69 265.42 57.37 356.69 58.85 356.78 58.17 264.86 57.01 264.86"/><polygon class="cls-24" points="71.35 264.86 56.69 286.18 58.17 286.18 73.16 264.86 71.35 264.86"/><polygon class="cls-25" points="102.9 264.86 113.07 282.07 112.91 280.23 104.37 264.86 102.9 264.86"/><polygon class="cls-26" points="54.5 356.69 51.71 266.13 56.69 261.06 57.37 356.69 54.5 356.69"/><polygon class="cls-27" points="56.69 286.18 71.35 264.86 67.18 264.86 56.69 281.22 56.69 286.18"/><polygon class="cls-28" points="19.63 356.78 17.31 279.45 22 279.48 22.68 356.67 19.63 356.78"/><polygon class="cls-29" points="22.68 356.67 24.37 356.67 23.69 279.49 22 279.48 22.68 356.67"/><polygon class="cls-30" points="168.67 356.67 169.63 272.77 166.3 279.96 164.71 279.95 164.11 356.67 168.67 356.67"/><polygon class="cls-31" points="168.67 356.67 169.63 272.77 173.3 264.86 170.99 356.69 168.67 356.67"/><polygon class="cls-32" points="208.55 267.99 204.88 356.78 206.92 356.67 210.97 274.56 208.55 267.99"/><polygon class="cls-33" points="173.18 269.95 208.42 271.2 208.55 267.99 207.93 266.31 173.3 264.86 173.18 269.95"/><polygon class="cls-34" points="196.94 270.73 207.66 289.59 207.93 284.38 199.78 270.73 196.94 270.73"/><polygon class="cls-35" points="186.88 270.43 172.68 289.59 172.81 284.38 183.08 270.3 186.88 270.43"/><polygon class="cls-36" points="74.43 252.74 100.2 252.21 99.8 256.17 74.43 256.17 74.43 252.74"/><polygon class="cls-37" points="100.2 252.21 102.01 252.21 101.82 256.17 99.8 256.17 100.2 252.21"/><path class="cls-38" d="M79.2,252.64s1.5-14.22,8.46-14.27,8.86,13.89,8.86,13.89Z"/><path class="cls-39" d="M81.48,252.64s1.5-14.22,8.45-14.27,8.87,13.89,8.87,13.89Z"/><path class="cls-40" d="M100.69,252.21s-2.22-16.91-12.26-16.86c0,0,9.93,9.05,10.47,16.91Z"/><path class="cls-41" d="M76,252.7s2.59-16.33,11.32-17.3,12.07,16.86,12.07,16.86l-4,0s-.64-13.93-7.69-13.93c-6.23,0-8.46,14.27-8.46,14.27Z"/><polygon class="cls-42" points="87.7 252.5 81.87 244.95 82.54 243.44 88.43 252.44 87.7 252.5"/><polygon class="cls-43" points="93.48 243.44 87.7 252.5 88.88 252.38 93.94 244.68 93.48 243.44"/><polygon class="cls-44" points="76.27 306.74 75.22 286.14 84.4 273.76 93.57 286.14 91.75 307.25 76.27 306.74"/><polygon class="cls-45" points="84.4 273.76 85.12 273.76 94.07 286.14 93.16 307.25 91.75 307.25 93.16 286.14 84.4 273.76"/><polygon class="cls-46" points="75.22 306.44 75.67 309.58 92.25 309.58 92.84 306.44 75.22 306.44"/><polygon class="cls-47" points="92.84 306.44 94.07 306.57 93.45 309.58 92.25 309.58 92.84 306.44"/><polygon class="cls-48" points="78.08 306.44 77.47 286.92 84.4 277.46 91.26 287.17 90.14 306.44 78.08 306.44"/><polygon class="cls-49" points="80.12 306.44 79.38 287.91 85.68 279.27 91.26 287.17 90.14 306.44 80.12 306.44"/><polygon class="cls-50" points="78.5 287.91 79.2 286.6 90.86 286.6 91.26 287.17 91.22 287.91 78.5 287.91"/><polygon class="cls-51" points="84.37 306.44 84.4 287.91 85.83 287.91 85.34 306.44 84.37 306.44"/><polygon class="cls-52" points="30.67 320.4 29.62 299.8 38.8 287.42 47.98 299.8 46.15 320.92 30.67 320.4"/><polygon class="cls-53" points="38.8 287.42 39.52 287.42 48.47 299.8 47.56 320.92 46.15 320.92 47.56 299.8 38.8 287.42"/><polygon class="cls-54" points="29.62 320.1 30.07 323.24 46.65 323.24 47.24 320.1 29.62 320.1"/><polygon class="cls-55" points="47.24 320.1 48.47 320.23 47.86 323.24 46.65 323.24 47.24 320.1"/><polygon class="cls-56" points="32.48 320.1 31.88 300.58 38.8 291.12 45.66 300.83 44.54 320.1 32.48 320.1"/><polygon class="cls-57" points="34.52 320.1 33.78 301.58 40.08 292.94 45.66 300.83 44.54 320.1 34.52 320.1"/><polygon class="cls-58" points="32.9 301.58 33.61 300.26 45.26 300.26 45.66 300.83 45.62 301.58 32.9 301.58"/><polygon class="cls-59" points="38.77 320.1 38.8 301.58 40.23 301.58 39.74 320.1 38.77 320.1"/><polygon class="cls-60" points="140.08 320.4 139.03 299.8 148.2 287.42 157.38 299.8 155.55 320.92 140.08 320.4"/><polygon class="cls-61" points="148.2 287.42 148.93 287.42 157.88 299.8 156.97 320.92 155.55 320.92 156.97 299.8 148.2 287.42"/><polygon class="cls-62" points="139.03 320.1 139.47 323.24 156.05 323.24 156.65 320.1 139.03 320.1"/><polygon class="cls-63" points="156.65 320.1 157.88 320.23 157.26 323.24 156.05 323.24 156.65 320.1"/><polygon class="cls-64" points="141.89 320.1 141.28 300.58 148.2 291.12 155.07 300.83 153.95 320.1 141.89 320.1"/><polygon class="cls-65" points="143.93 320.1 143.18 301.58 149.49 292.94 155.07 300.83 153.95 320.1 143.93 320.1"/><polygon class="cls-66" points="142.31 301.58 143.01 300.26 154.67 300.26 155.07 300.83 155.03 301.58 142.31 301.58"/><polygon class="cls-67" points="148.18 320.1 148.2 301.58 149.63 301.58 149.15 320.1 148.18 320.1"/><polygon class="cls-68" points="198.32 318.58 200.06 298.04 193.82 285.36 186.43 297.41 186.81 318.56 198.32 318.58"/><polygon class="cls-69" points="193.82 285.36 192.38 285.75 185.07 297.21 185.11 318.48 186.81 318.56 186.74 297.42 193.82 285.36"/><polygon class="cls-70" points="199.12 318.32 198.64 321.44 186.33 320.87 186.03 317.71 199.12 318.32"/><polygon class="cls-71" points="186.03 317.71 184.39 317.87 184.39 320.78 186.33 320.87 186.03 317.71"/><polygon class="cls-72" points="196.99 318.22 198.35 298.74 193.65 289.05 188.1 298.51 188.04 317.8 196.99 318.22"/><polygon class="cls-73" points="195.48 318.15 196.89 299.67 192.61 290.82 188.1 298.51 188.04 317.8 195.48 318.15"/><polygon class="cls-74" points="197.54 299.7 197.08 298.36 188.42 297.96 188.1 298.51 188.09 299.26 197.54 299.7"/><polygon class="cls-75" points="192.32 318 193.16 299.5 192.1 299.45 191.6 317.97 192.32 318"/><polygon class="cls-76" points="57.91 315.09 112.46 315.09 112.41 318.88 57.91 318.88 57.91 315.09"/><path class="cls-77" d="M76.81,356.79,75,335.7s2-11.4,10.1-11.44c7.59,0,10.1,11,10.1,11l-1.4,21.52Z"/><path class="cls-78" d="M75.89,356.79,74.08,335.7s2-11.4,10.1-11.44c7.59,0,10.1,11,10.1,11l-1.4,21.52Z"/><path class="cls-79" d="M91.83,336.88,90.77,356H77.9l-1.37-18.76s.88-10.55,7.65-10.56a4.4,4.4,0,0,1,.73.05C90.67,327.49,91.83,336.88,91.83,336.88Z"/><path class="cls-80" d="M91.83,336.88,90.77,356H79.37L78,337.27s.81-9.78,6.91-10.51C90.67,327.49,91.83,336.88,91.83,336.88Z"/><path class="cls-81" d="M79.43,336.4H91.26S89.78,328,85.35,328C80.4,328,79.43,336.4,79.43,336.4Z"/><polygon class="cls-12" points="195.13 207.72 181.68 234.3 182.13 235.36 167.26 262.96 168.29 264.78 162.05 278.05 166.3 279.96 195.13 217.79 218.32 281.9 222.39 279.96 217.88 267.99 218.92 267.4 207.93 239.59 208.55 239.11 195.13 207.72"/><polygon class="cls-82" points="36.74 208.84 22 233.03 23.5 234.12 7.96 261.06 9.27 261.27 0.61 277.81 19.99 277.77 45.66 212.06 41.19 212.1 38.77 207.72 36.74 208.84"/><polygon class="cls-83" points="120.93 277.99 128.92 261.06 127.64 261.06 137.69 239.06 136.61 238.69 148.43 211.13 125.41 277.77 120.93 277.99"/><polygon class="cls-84" points="136.61 238.69 166.3 238.37 178.61 210.88 148.43 211.13 136.61 238.69"/><polygon class="cls-84" points="167.26 262.96 156.69 262.96 170.99 236.78 182.13 235.36 167.26 262.96"/><polygon class="cls-85" points="120.93 277.99 128.92 261.06 151.73 261.27 144.86 277.77 120.93 277.99"/><polygon class="cls-86" points="167.26 262.96 141.78 262.96 168.29 264.78 167.26 262.96"/><polygon class="cls-87" points="154.04 238.37 142.86 262.96 144.07 262.96 154.04 238.37"/><polygon class="cls-88" points="136.61 238.69 137.69 239.06 166.3 238.37 136.61 238.69"/><polygon class="cls-89" points="178.61 210.88 169.56 231.11 180.08 211.13 178.61 210.88"/><polygon class="cls-90" points="22 233.03 47.98 233.03 23.5 234.12 22 233.03"/><polygon class="cls-91" points="33.73 261.27 47.98 233.03 32.68 259.85 7.96 261.06 9.27 261.27 33.73 261.27"/><polygon class="cls-84" points="7.96 261.06 32.68 259.85 47.98 233.03 23.5 234.12 7.96 261.06"/><polygon class="cls-85" points="45.66 212.06 33.78 229.34 58.85 228.11 69.4 211.85 45.66 212.06"/><polygon class="cls-84" points="12.48 277.77 18.83 269.53 34.99 269.53 29.62 278.05 12.48 277.77"/><polygon class="cls-92" points="91.4 188.58 102.9 213.83 102.23 214.82 117.39 248.68 116.4 249.16 125.03 270.08 120.17 271.2 86.56 191.53 42.96 268.9 39.05 268.09 47.72 252.26 45.66 252.21 60.28 229.34 59.59 228.49 82.61 188.58 91.4 188.58"/><polygon class="cls-93" points="144.74 278.05 148.93 267.99 142.86 277.99 144.74 278.05"/><polygon class="cls-94" points="29.62 278.05 34.99 269.53 31.14 277.99 29.62 278.05"/><polygon class="cls-95" points="17.55 287.42 52.78 300.76 52.12 279.48 17.31 279.45 17.55 287.42"/><polygon class="cls-95" points="51.71 266.13 52 275.65 99.71 222.7 117.58 265.06 117.58 278.05 115.42 356.78 131.33 356.48 138.26 291.66 169.63 289.25 195.13 254.4 210.7 280.16 210.97 274.56 192.22 223.79 166.3 279.96 125.41 279.96 120.93 277.99 124.23 271 120.17 271.2 89.22 197.84 51.71 266.13"/><polygon class="cls-96" points="69.87 356.79 70.88 353.91 93.72 353.91 93.72 356.79 69.87 356.79"/><polygon class="cls-97" points="93.72 353.91 96.69 354.54 96.69 356.72 93.72 356.79 93.72 353.91"/><polygon class="cls-98" points="102.23 214.82 112.46 215.8 127.06 249.14 117.39 248.68 102.23 214.82"/><polygon class="cls-85" points="134.41 204.63 142.86 225.6 148.43 211.13 134.41 204.63"/><polygon class="cls-99" points="117.39 248.68 130.91 249.59 116.4 249.16 117.39 248.68"/><polygon class="cls-100" points="33.78 345.03 31.88 337.87 40.23 330.03 52.78 332.19 51.59 346.76 46.65 351.71 37.3 348.55 33.78 345.03"/><polygon class="cls-100" points="30.24 337.15 29.62 335.34 26.52 336.24 26.52 338.42 29.62 338.42 30.24 337.15"/><polygon class="cls-100" points="30.96 335.34 30.96 333.62 32.68 333.62 31.88 335.34 30.96 335.34"/><polygon class="cls-100" points="171.66 330.03 184.39 345.3 196.61 352.73 196.61 356.66 170.99 356.69 171.66 330.03"/><polygon class="cls-100" points="196.61 340.14 199.12 349.47 198.35 356.66 204.88 356.78 205.86 333.06 196.61 340.14"/><polygon class="cls-100" points="154.04 336.88 149.63 348.55 157.38 356.66 164.11 356.67 164.25 338.42 158.03 335.52 154.04 336.88"/><polygon class="cls-100" points="146.73 347.78 147.84 349.82 143.62 354.54 140.09 351.71 141.28 344.4 143.96 344.4 146.73 347.78"/><polygon class="cls-100" points="108.02 303.92 109.13 305.96 104.91 310.68 101.38 307.86 102.57 300.54 105.25 300.54 108.02 303.92"/><polygon class="cls-100" points="145.25 340.87 144.74 339.15 145.55 338.45 148.18 339.15 147.51 340.63 145.25 340.87"/><polygon class="cls-100" points="96.67 327.44 96.15 325.71 96.96 325.01 99.59 325.71 98.92 327.19 96.67 327.44"/><polygon class="cls-85" points="73.16 261.06 84.03 263.71 90.14 264.78 94.56 264.86 86.76 262.96 80.66 261.06 73.16 261.06"/><polygon class="cls-85" points="87.7 261.06 88.43 262.33 94.07 263.55 98.8 264.78 100.69 264.78 95.37 263.28 91.26 262.19 90.14 261.06 87.7 261.06"/><polygon class="cls-85" points="102.01 271.74 106.06 273.46 110.95 280.54 112.94 285.06 112.83 286.6 110.18 280.44 105.97 274.11 103.14 273.46 102.01 271.74"/><polygon class="cls-85" points="100.2 269 107.27 272.24 106.31 270.62 102.9 269.8 99.27 267.58 100.2 269"/><polygon class="cls-85" points="60.01 315.09 74.91 318.07 91.4 318.88 95.21 318.88 85.34 317.27 79.43 317.54 75.22 317.4 70.91 315.45 70.28 315.09 60.01 315.09"/><polygon class="cls-85" points="94.19 315.09 101.38 318.88 102.01 318.88 98.1 315.09 94.19 315.09"/><polygon class="cls-85" points="112.76 291.95 115.42 299.29 114.75 309.58 116.2 325.65 116.09 327.98 114.75 323.24 114.48 309.96 114.12 306.89 114.75 298.83 112.72 294.85 112.76 291.95"/><polygon class="cls-85" points="112.4 319.34 113.76 330.03 115.9 335.34 115.9 337.69 115.42 336.4 114.15 331.38 113.33 329.99 112.35 323.53 112.4 319.34"/><polygon class="cls-85" points="18.25 310.84 21.54 326.34 21.54 331.84 22.56 343.79 22.5 336.88 22 331.5 22 326.25 20.41 313.7 18.25 308.22 18.25 310.84"/><polygon class="cls-85" points="18.48 316.99 20.41 330.03 19.99 342.98 19.33 346.76 18.48 316.99"/><polygon class="cls-85" points="54.5 356.69 53.17 313.66 54.5 318.07 54.54 323.24 57.2 333.62 57.2 339.82 56.69 333.98 54.54 326.71 54.54 325.24 54.54 334.88 55.92 342.54 57.3 346.76 57.37 356.69 54.5 356.69"/><polygon class="cls-95" points="118.82 221.93 133.49 226 132.05 217.94 131.74 224.58 118.82 221.93"/><polygon class="cls-101" points="222.39 279.96 217.88 267.99 218.92 267.4 207.93 239.59 208.55 239.11 195.13 207.72 188.66 210.77 148.5 211.13 148.43 211.13 93.43 185.61 93.43 178.9 91.41 178.16 83.64 178.16 82.62 188.58 69.19 211.85 45.66 212.06 41.19 212.1 38.77 207.72 36.74 208.84 22 233.03 23.5 234.12 23.5 234.12 7.96 261.06 9.27 261.27 0.61 277.81 16.16 277.83 16.16 277.83 0.61 277.81 3.91 279.39 17.31 279.45 17.31 279.45 17.55 287.42 17.55 287.42 19.33 346.75 19.33 346.76 19.33 346.76 19.63 356.78 58.37 356.75 58.85 356.78 58.84 356.75 69.89 356.74 69.87 356.79 75.89 356.79 76.81 356.79 92.88 356.79 93.72 356.79 93.81 356.79 93.81 356.79 95.49 356.75 111.92 356.77 111.92 356.78 115.42 356.78 117.33 356.78 117.33 356.74 119.32 356.71 168.67 356.67 170.99 356.69 170.99 356.67 170.99 356.67 170.99 356.69 189.7 356.67 198.79 356.67 204.88 356.78 206.92 356.67 210.61 281.9 218.32 281.9 222.39 279.96"/><polygon class="cls-102" points="845.47 354.02 844.18 352.64 844.18 338.19 845.14 337.47 845.01 330.77 844.02 330.77 843.6 310.7 844.76 309.88 843.54 307.94 843.08 286.06 844.27 283.64 844.27 280.6 842.93 279.13 842.69 267.57 843.74 265.92 843.6 264.72 842.61 263.74 842.28 248.38 843.37 247.39 843.35 246.49 842.23 246.01 842.69 241.63 846.25 242.09 845.62 361.73 845.47 354.02"/><polygon class="cls-103" points="822.67 212.37 849.03 217.05 920.6 177.03 914.42 165.85 874.19 168.55 834.9 209.46 822.67 212.37"/><polygon class="cls-104" points="845.62 361.73 842.58 207.18 939.33 204.8 933.52 361.73 845.62 361.73"/><polygon class="cls-7" points="939.33 204.8 965.73 219.55 957.5 361.73 933.52 361.73 939.33 204.8"/><polygon class="cls-105" points="912.53 164.39 933.52 178.26 975.3 224.9 943.1 208.88 912.53 164.39"/><polygon class="cls-106" points="952.25 204.8 980.47 225.73 978.86 228.7 951.75 211.17 952.25 204.8"/><polygon class="cls-107" points="842.58 207.18 874.92 174.75 915.6 172.39 939.26 206.31 842.58 207.18"/><polygon class="cls-108" points="978.86 228.7 965.19 226.33 965.19 224.9 941.59 210.45 952.25 210.45 978.86 228.7"/><polygon class="cls-109" points="952.25 210.45 941.59 210.45 911.14 168.59 874.41 169.64 834.62 211.08 822.67 212.37 821.88 207.18 833.19 207.24 873.16 165.75 912.53 164.39 942.72 204.8 952.25 204.8 952.25 210.45"/><polygon class="cls-110" points="873.16 165.75 907.66 155.61 912.53 164.39 873.16 165.75"/><polygon class="cls-111" points="907.66 155.61 918.9 163.77 933.52 178.26 912.53 164.39 907.66 155.61"/><polygon class="cls-112" points="939.98 236.06 919.67 237.62 919.67 248.38 922.4 250.2 939.46 250.2 939.98 236.06"/><polygon class="cls-113" points="939.25 255.8 932.25 255.8 929.83 259.45 929.83 270.3 938.49 276.36 939.25 255.8"/><polygon class="cls-114" points="938.34 280.6 935.34 281.7 931.64 285.03 931.64 290.86 937.82 294.72 938.34 280.6"/><polygon class="cls-115" points="937.72 297.3 928.91 297.3 920.58 300.08 919.67 307.94 932.4 310.82 937.19 311.53 937.72 297.3"/><polygon class="cls-116" points="937.03 315.85 931.64 315.85 929.83 320.03 929.83 326.54 936.48 330.77 937.03 315.85"/><polygon class="cls-117" points="936.27 336.61 934.54 338.19 933.43 343.63 934.85 345.68 936.27 345.68 936.27 336.61"/><polygon class="cls-118" points="936.27 350.06 924.92 350.06 919.67 355.84 919.67 361.73 935.34 361.73 936.27 350.06"/><polygon class="cls-119" points="841.96 232.92 855.54 232.69 858.47 237.62 856.2 243.28 848.07 246.2 842.23 246.01 841.96 232.92"/><polygon class="cls-120" points="842.28 248.38 846.55 248.38 848.5 252.67 850.22 259.63 846.25 263.74 842.61 263.74 842.28 248.38"/><polygon class="cls-121" points="842.69 267.57 846.25 267.57 850.22 271.33 847.63 274.6 842.93 279.13 842.69 267.57"/><polygon class="cls-122" points="843.08 286.06 846.45 290.08 846.45 304.02 843.54 307.94 843.08 286.06"/><polygon class="cls-123" points="843.6 310.7 846.45 310.7 853.7 318.28 853.7 327.52 850.22 330.77 844.02 330.77 843.6 310.7"/><polygon class="cls-124" points="844.18 338.19 848.65 339.15 850.22 343.63 850.22 350.06 844.18 352.64 844.18 338.19"/><polygon class="cls-125" points="842.58 207.18 849.38 208.55 853.02 219.57 851.2 224.71 842.69 224.9 842.58 207.18"/><polygon class="cls-126" points="939.26 210.45 929.83 212.37 926.88 217.05 924.52 223.4 938.64 223.4 939.26 210.45"/><polygon class="cls-127" points="940.38 236.06 946.28 241.63 946.28 250.2 944.32 251.35 938 251.35 922.8 250.2 939.86 250.2 940.38 236.06"/><polygon class="cls-127" points="939.25 255.8 943.01 258.91 943.01 270.66 939.98 274.98 938.49 276.36 939.25 255.8"/><polygon class="cls-127" points="938.34 280.6 939.98 284.94 940.75 291.17 937.82 294.72 938.34 280.6"/><polygon class="cls-127" points="937.72 297.3 945.89 300.53 946.54 303.53 947.25 309.88 941.59 310.7 937.72 312.52 923.2 308.74 937.22 310.7 937.72 297.3"/><polygon class="cls-127" points="937.03 315.85 940.75 318.28 941.59 324.88 940.75 329.43 936.48 330.77 936.27 322.48 935.23 320.73 937.03 315.85"/><polygon class="cls-127" points="936.27 336.61 938.49 339.27 938.34 345.42 936.27 345.68 936.27 336.61"/><polygon class="cls-127" points="936.27 350.06 941.59 354.86 948.97 358.22 948.97 361.73 935.34 361.73 936.27 350.06"/><polygon class="cls-128" points="912.53 164.39 925.33 179.34 924.52 180.44 938.06 196.18 937.45 197.74 912.53 164.39"/><polygon class="cls-129" points="873.16 165.75 857.56 179.41 858.74 180.72 839.99 197.59 840.84 199.3 873.16 165.75"/><polygon class="cls-95" points="843.09 283.59 843.08 286.06 846 288.35 885.58 287.36 938.34 288.43 961.5 292.61 961.4 288.35 963.15 288.35 939.33 281.42 843.09 283.59"/><polygon class="cls-95" points="843.09 228.31 843.08 230.78 847.8 230.34 885.58 232.08 938.34 231.54 964.45 241.63 964.35 238.9 963.15 233.06 939.33 226.14 843.09 228.31"/><polygon class="cls-130" points="875.77 213.89 875.04 189.74 879.84 182.78 905.04 182.58 909.62 189.54 907.75 213.89 875.77 213.89"/><polygon class="cls-131" points="877.88 211.87 905.97 211.87 907.44 190.54 904.12 185.14 880.65 185.34 877.3 190.34 877.88 211.87"/><polygon class="cls-132" points="878.95 211.87 878.51 190.74 881.37 186.38 904.75 186.18 907.44 190.54 905.97 211.87 878.95 211.87"/><polygon class="cls-133" points="879.93 211.23 906.02 211.23 907.44 190.98 905.1 187.34 882.06 187.55 879.72 191.25 879.93 211.23"/><polygon class="cls-134" points="905.04 182.58 906.2 183.37 910.38 190.22 908.68 213.89 907.75 213.89 909.62 189.54 905.04 182.58"/><polygon class="cls-135" points="892.47 187.29 892.18 211.34 892.82 211.34 893.02 187.32 892.47 187.29"/><polygon class="cls-136" points="884.06 187.5 884.04 211.34 884.62 211.34 884.62 187.53 884.06 187.5"/><polygon class="cls-137" points="901.94 187.29 900.92 211.23 901.43 211.34 902.42 187.38 901.94 187.29"/><polygon class="cls-138" points="879.72 191.25 907.44 191.45 907.34 192.36 879.74 191.91 879.72 191.25"/><polygon class="cls-95" points="877.3 190.34 878.51 190.74 907.21 194.25 907.44 190.98 904.12 185.14 880.65 185.34 877.3 190.34"/><polygon class="cls-139" points="876.38 361.73 875.61 326.54 901.06 326.54 899.72 361.73 876.38 361.73"/><polygon class="cls-140" points="878.92 361.73 878.92 330.77 897.56 330.77 896.65 361.73 878.92 361.73"/><polygon class="cls-141" points="881.04 361.73 881.04 330.77 897.56 330.77 896.65 361.73 881.04 361.73"/><polygon class="cls-142" points="901.06 326.54 902.3 327.01 901.06 361.73 899.72 361.73 901.06 326.54"/><polygon class="cls-143" points="838.27 220.53 940.89 219.03 966.79 232.94 966.11 238.9 941.59 226.76 838.27 226.91 838.27 220.53"/><polygon class="cls-144" points="940.89 219.03 939.33 224.94 838.27 226.91 843.09 228.55 938.82 226.83 964.35 238.9 966.11 238.9 966.79 232.94 940.89 219.03"/><polygon class="cls-145" points="853.01 268.74 851.28 242.52 856.27 234.84 865.61 234.53 870.72 241.88 869.32 268.2 853.01 268.74"/><polygon class="cls-146" points="855.23 266.48 867.35 266.08 868.39 243.03 864.68 237.33 857.22 237.57 853.73 243.08 855.23 266.48"/><polygon class="cls-147" points="856.38 266.45 855.04 243.47 858.01 238.67 865.39 238.42 868.39 243.03 867.35 266.08 856.38 266.45"/><polygon class="cls-148" points="857.43 265.72 867.38 265.39 868.4 243.5 865.79 239.67 858.79 239.9 856.36 243.98 857.43 265.72"/><polygon class="cls-149" points="862.24 265.56 861.82 247.87 862.98 247.83 862.82 265.54 862.24 265.56"/><polygon class="cls-150" points="856.38 245.12 861.82 247.87 862.98 247.83 868.42 244.17 868.4 243.33 862.97 247.21 865.79 239.67 865.11 239.69 862.39 247.23 858.79 239.9 858.49 240.47 862.01 247.24 856.36 243.98 856.38 245.12"/><polygon class="cls-151" points="865.61 234.53 866.87 235.34 871.56 242.59 870.32 268.17 869.32 268.2 870.72 241.88 865.61 234.53"/><polygon class="cls-95" points="853.73 243.08 855.04 243.47 868.24 247.04 868.4 243.5 864.68 237.33 857.22 237.57 853.73 243.08"/><polygon class="cls-152" points="906.42 268.34 905.52 242.06 910.75 234.61 920.1 234.72 924.97 242.29 922.74 268.53 906.42 268.34"/><polygon class="cls-153" points="908.72 266.19 920.84 266.33 922.61 243.34 919.08 237.47 911.61 237.39 907.96 242.74 908.72 266.19"/><polygon class="cls-154" points="909.87 266.2 909.25 243.18 912.37 238.51 919.75 238.6 922.61 243.34 920.84 266.33 909.87 266.2"/><polygon class="cls-155" points="910.93 265.52 920.89 265.64 922.61 243.81 920.12 239.86 913.11 239.78 910.55 243.75 910.93 265.52"/><polygon class="cls-156" points="915.74 265.58 915.89 247.88 917.05 247.89 916.32 265.59 915.74 265.58"/><polygon class="cls-157" points="910.54 244.89 915.89 247.88 917.05 247.89 922.6 244.48 922.61 243.64 917.05 247.27 920.12 239.86 919.43 239.86 916.47 247.27 913.11 239.78 912.79 240.33 916.1 247.26 910.55 243.75 910.54 244.89"/><polygon class="cls-158" points="920.1 234.72 921.33 235.59 925.79 243.04 923.74 268.54 922.74 268.53 924.97 242.29 920.1 234.72"/><polygon class="cls-95" points="907.96 242.74 909.25 243.18 922.33 247.34 922.61 243.81 919.08 237.47 911.61 237.39 907.96 242.74"/><polygon class="cls-159" points="853.01 321.57 851.28 295.35 856.27 287.67 865.61 287.36 870.72 294.71 869.47 321.36 853.01 321.57"/><polygon class="cls-160" points="855.23 319.32 867.5 319.25 868.39 295.86 864.68 290.16 857.22 290.41 853.73 295.92 855.23 319.32"/><polygon class="cls-161" points="856.38 319.28 855.04 296.31 858.01 291.5 865.39 291.26 868.39 295.86 867.5 319.25 856.38 319.28"/><polygon class="cls-162" points="857.43 318.56 867.53 318.56 868.4 296.34 865.79 292.5 858.79 292.73 856.36 296.81 857.43 318.56"/><polygon class="cls-163" points="862.38 318.73 861.82 300.7 862.98 300.66 862.96 318.71 862.38 318.73"/><polygon class="cls-164" points="856.38 297.95 861.82 300.7 862.98 300.66 868.42 297 868.4 296.17 862.97 300.04 865.79 292.5 865.11 292.52 862.39 300.06 858.79 292.73 858.49 293.3 862.01 300.07 856.36 296.81 856.38 297.95"/><polygon class="cls-165" points="865.61 287.36 866.87 288.17 871.56 295.42 870.46 321.33 869.47 321.36 870.72 294.71 865.61 287.36"/><polygon class="cls-95" points="853.73 295.92 855.04 296.31 868.24 299.87 868.4 296.34 864.68 290.16 857.22 290.41 853.73 295.92"/><polygon class="cls-166" points="906.04 320.73 905.52 294.89 910.75 287.44 920.1 287.55 924.97 295.12 923.06 321.31 906.04 320.73"/><polygon class="cls-167" points="908.34 318.57 921.16 319.11 922.61 296.17 919.08 290.31 911.61 290.22 907.96 295.57 908.34 318.57"/><polygon class="cls-168" points="909.49 318.58 909.25 296.01 912.37 291.35 919.75 291.44 922.61 296.17 921.16 319.11 909.49 318.58"/><polygon class="cls-169" points="910.55 317.91 921.21 318.42 922.61 296.65 920.12 292.7 913.11 292.61 910.55 296.58 910.55 317.91"/><polygon class="cls-170" points="915.74 318.41 915.89 300.71 917.05 300.72 916.32 318.42 915.74 318.41"/><polygon class="cls-171" points="910.54 297.73 915.89 300.71 917.05 300.72 922.6 297.31 922.61 296.47 917.05 300.11 920.12 292.7 919.43 292.69 916.47 300.1 913.11 292.61 912.79 293.17 916.1 300.1 910.55 296.58 910.54 297.73"/><polygon class="cls-172" points="920.1 287.55 921.33 288.42 925.79 295.87 924.06 321.32 923.06 321.31 924.97 295.12 920.1 287.55"/><polygon class="cls-95" points="907.96 295.57 909.25 296.01 922.33 300.17 922.61 296.65 919.08 290.31 911.61 290.22 907.96 295.57"/><polygon class="cls-173" points="838.27 275.57 940.89 275.51 963.84 282.39 963.15 288.35 941.59 283.24 838.27 281.95 838.27 275.57"/><polygon class="cls-174" points="940.89 275.51 939.33 281.42 838.27 281.95 843.09 283.59 938.82 283.31 961.4 288.35 963.15 288.35 963.84 282.39 940.89 275.51"/><polygon class="cls-95" points="878.92 330.77 881.04 336.61 897.39 336.61 897.56 330.77 878.92 330.77"/><polygon class="cls-85" points="856.58 220.42 876.05 224.9 896 224.9 931.64 219.16 922.8 219.16 900.13 222.65 893.12 223.4 876.73 222.03 875.36 219.99 856.58 220.42"/><polygon class="cls-85" points="847.34 220.4 861.72 226.45 851.28 226.76 849.08 223.58 843.62 220.45 847.34 220.4"/><polygon class="cls-85" points="858.47 275.56 868.39 277.81 892.85 279.13 912.53 276.36 915.25 275.56 907.96 275.48 896.65 277.31 888.33 277.81 869.99 277.31 866.25 275.48 858.47 275.56"/><polygon class="cls-85" points="884.33 281.71 910.55 279.13 924.52 275.52 939.25 275.48 925.79 276.36 912.53 280.6 897.36 281.64 884.33 281.71"/><polygon class="cls-175" points="885.58 326.48 885.58 226.56 891.57 226.35 890.15 326.54 885.58 326.48"/><polygon class="cls-176" points="891.57 226.35 892.56 227.66 892.56 275.48 891.57 275.54 891.57 281.71 892.06 283.15 890.95 326.54 890.15 326.54 891.57 226.35"/><polygon class="cls-85" points="885.58 312.13 888.58 295.19 888.24 282.82 891.14 256.06 891.14 260.59 890.89 273.73 888.87 284.09 889.18 297 885.58 320.73 885.58 312.13"/><polygon class="cls-85" points="885.58 267.06 891.38 239.44 891.45 234.8 888.24 251.63 885.58 256.73 885.58 267.06"/><polygon class="cls-177" points="844.18 352.64 855.04 352.64 861 358.29 868.58 360.73 876.38 361.73 902.53 361.73 919.67 355.84 919.67 361.73 843.62 361.73 844.18 352.64"/><polygon class="cls-127" points="948.97 358.22 955.48 355.84 958.4 346.25 959.88 361.73 948.97 361.73 948.97 358.22"/><polygon class="cls-95" points="838.27 220.53 838.27 226.91 853.7 226.61 857.49 220.4 861.07 220.4 894.11 180.72 919.67 180.72 943.69 213.89 956.95 241.63 963.84 245.35 964.35 238.9 966.11 238.9 966.79 232.94 965.01 231.98 965.19 224.9 941.59 210.45 913.91 172.39 874.92 174.75 842.58 207.18 842.66 220.46 838.27 220.53"/><polygon class="cls-85" points="875.77 333.69 877.66 341.15 877.66 351.14 876.38 361.73 876.27 354.8 876.71 348.77 877.37 341.44 876.39 338.48 875.87 338.23 875.77 333.69"/><polygon class="cls-85" points="875.77 329.75 878.24 334.52 878.92 339.91 878.92 336.99 878.09 332.99 876.2 326.54 875.61 326.54 875.77 329.75"/><polygon class="cls-85" points="900.89 330.77 899.15 347.71 898.81 348.88 897.56 353.18 896.65 361.73 898.2 361.73 897.56 359.03 897.98 353.18 898.77 349.54 900.26 347.59 900.89 330.77"/><polygon class="cls-178" points="938.06 196.18 945.74 203.4 937.45 197.74 938.06 196.18"/><polygon class="cls-85" points="889.3 361.73 890.95 353.99 893.22 351.02 897.25 341.15 896.65 345.42 893.28 352.64 893.28 361.73 889.3 361.73"/><polygon class="cls-85" points="886.35 361.73 887.16 330.77 890.15 330.77 888.24 361.73 886.35 361.73"/><polygon class="cls-101" points="978.86 228.7 980.47 225.73 967.28 215.95 933.52 178.26 918.9 163.77 907.66 155.61 873.16 165.75 857.56 179.41 858.74 180.72 833.19 207.24 821.88 207.18 822.67 212.37 842.63 215.92 842.66 220.46 838.27 220.53 838.27 226.91 843 228.52 843.09 232.9 841.96 232.92 842.23 246.01 843.35 246.49 843.37 247.39 842.28 248.38 842.61 263.74 843.6 264.72 843.74 265.92 842.69 267.57 842.86 275.57 838.27 275.57 838.27 281.95 843.09 283.59 843.08 286.06 843.54 307.94 844.59 309.61 844.6 310 843.6 310.7 844.02 330.77 845.01 330.77 845.14 337.47 844.18 338.19 844.18 352.64 843.62 361.73 845.62 361.73 876.38 361.73 878.92 361.73 881.04 361.73 886.35 361.73 888.24 361.73 889.3 361.73 893.28 361.73 896.65 361.73 898.2 361.73 899.72 361.73 901.06 361.73 902.53 361.73 919.67 361.73 933.52 361.73 935.34 361.73 948.97 361.73 957.5 361.73 959.88 361.73 958.4 346.25 961.75 288.35 963.15 288.35 963.84 282.39 962.12 281.87 964.61 238.9 966.11 238.9 966.79 232.94 965.01 231.98 965.33 226.36 978.86 228.7"/></g></g></g></svg>